<?xml version="1.0" encoding="utf-8"?>
<!-- Generator: Adobe Illustrator 18.0.0, SVG Export Plug-In . SVG Version: 6.00 Build 0)  -->
<!DOCTYPE svg PUBLIC "-//W3C//DTD SVG 1.1//EN" "http://www.w3.org/Graphics/SVG/1.1/DTD/svg11.dtd">
<svg version="1.1" id="Layer_1" xmlns="http://www.w3.org/2000/svg" xmlns:xlink="http://www.w3.org/1999/xlink" x="0px" y="0px"
	 viewBox="0 0 290 41" enable-background="new 0 0 290 41" xml:space="preserve">
<g>
	<path fill="#FF4A8F" d="M35.3,11.5c0.7-1.3,0.6-2.6-0.2-3.7c-0.6-1.1-1.5-1.8-2.9-1.5c-1.9,0.4-5.3,1.3-7.2,1.9
		c-2.5,0.9-5,1.9-7.5,2.9c-0.7,0.3-1.3,0.3-2.2-0.2c-1.1-0.7-2-0.4-2.4,0.4c-0.4,1.6-1.6,2.2-3.1,2.5c-1.3,0.4-2.6,0.9-4,1.5
		c-0.9,0.3-1.5,0.9-1.1,2c0.7,1.8,1.6,3.3,3.8,3.5c-0.2,0.6-0.3,0.9-0.4,1.3c-0.4,1.3-0.9,2.6-2.5,3.1c-0.7,0.3-1.1,1.1-0.9,2
		c0.3,0.9,0.6,1.8,0.6,2.6c-0.2,1.6-0.4,3.3-0.9,5c-0.4,1.8,1.9,4.6,3.7,4.4c1.9,0,3.7-0.6,5.5-1.5c4.7-2,9.5-3.7,14.3-5.4
		c1.1-0.4,1.9-1.1,1.9-2c0-0.9-1.6-3.5-2.2-3.7c-0.2,0-0.2,0-0.3,0c-1.1,0.3-2.4,0.3-3.3,0.7c-2,0.7-4.1,1.5-6,2.2
		c-2.5,1.1-5,2.2-7.5,3.3c-0.2-0.2-0.3-0.3-0.3-0.3c0.4-1.1,0.9-2.2,1.1-3.3c0.3-1.1,0.9-1.6,1.9-1.8c5.1-1.3,9.9-3.3,14.8-5.4
		c0.9-0.4,1.3-1.3,0.9-2.2c-0.4-0.9-0.9-1.6-1.3-2.4c-0.3-0.7-0.7-0.7-1.5-0.4c-3.3,1.3-6.3,2.5-9.5,3.8c-0.4,0.2-1.1,0.3-1.8,0.4
		c0.4-1.1,0.6-1.9,1.1-2.6c0.7-1.1,1.1-2.2,2.5-2.6c3.3-1.1,7.9-2.8,11.2-4c0.7-0.3,1.5-0.6,1.9,0.4c0,0.2,0.3,0.3,0.4,0.3
		C33.3,12.8,34.6,12.8,35.3,11.5z"/>
	<path fill="#FF4A8F" d="M65.3,11c0.2-1.3-0.2-2.5-1.1-3.3c-0.9-0.9-1.5-0.9-2.4,0c-4.2,4.6-8.6,9.2-12.9,13.8
		c-0.4,0.4-0.9,0.9-1.5,1.3c-0.2,0-0.2-0.2-0.3-0.2c0-1.1,0-2.2,0-3.3c0-1.9,0-4-0.3-5.9c-0.2-1.8-2.5-2.8-4-1.6
		c-1.1,0.7-1.9,1.8-2.9,2.6c-2.2-0.6-2.8-0.4-3.5,1.9c-1.3,3.5-2.6,7.2-3.8,10.8c-0.2,0.3,0,0.7,0.3,0.9c0.3,0.4,0.9,0.9,1.1,1.1
		c0.9,0.9,2.4,0.7,2.9-0.4c1.5-2.6,2.9-5.1,4.6-7.7c0.2-0.3,0.4-0.4,0.7-0.9c0.2,0.9,0.2,1.5,0.2,2c0.2,1.3,0.3,2.6,0.6,4
		c0.2,0.7,0.3,1.6,0.9,2.2c1.1,1.1,3.3,1.1,4.7-0.2c1.1-1.1,2.2-2.2,3.3-3.3c1.1-1.1,1.9-2,2.8-3.1c-0.2,0.9-0.4,1.6-0.7,2.4
		c-1.1,2.9-2.5,5.7-3.7,8.6C49.6,35,50,36.1,52.2,37c1.1,0.6,2,0.4,2.5-0.4c1.1-2.8,2.5-5.7,3.7-8.5c1.8-4.1,3.7-8.3,5.5-12.5
		C64.4,14.2,65.1,12.8,65.3,11z"/>
	<path fill="#FF4A8F" d="M83,8c-1.6-1.3-2.5-1.5-4.4-0.3l-0.2,0.2c-2.2,0.3-3.3,1.9-4.6,3.3c-3.3,4.6-6.8,9.1-9.9,13.6
		c-1.3,1.8-2.4,3.7-3.5,5.5c-0.4,0.7-0.9,1.6,0,2.5c0.9,0.7,1.9,1.1,3.1,0.6c0.3-0.2,0.4-0.2,0.7-0.2c0.9,0,1.1-0.4,1.5-1.1
		c0.3-1.1,1.1-2,2.4-2.2c2.4-0.4,4.8-1.1,7.2-1.5c0.9-0.2,1.6-0.3,2.8-0.4c-0.2,3.5-0.3,6.8-0.6,9.9c-0.2,1.6,0,1.9,1.3,2.6
		c2,1.1,4-0.3,4.1-2.6c0.3-7.6,0.9-15.2,1.5-22.8c0.2-2.5-0.7-4.7-1.1-6.9C83.3,8.2,83.2,8.2,83,8z M78.3,22.9
		c0,0.2-0.3,0.4-0.6,0.4c-2,0.6-4.2,1.1-6.3,1.6c-0.2,0-0.2,0-0.6-0.2c2.6-3.3,5.1-6.3,7.6-9.4c0.2,0,0.3,0.2,0.4,0.2
		C78.6,18,78.5,20.5,78.3,22.9z"/>
	<path fill="#FF4A8F" d="M126.2,29.9c0-0.4-0.4-0.9-0.7-1.1c-0.7-0.2-1.6-0.3-2.5-0.3c-2.6,0.4-4.1,1.1-6.9,1.3
		c-3.5,0.3-7,0.9-11,1.1c0.4-1.1,0.9-1.8,1.1-2.6c2.6-5.4,5.1-11,7.9-16.4c0.7-1.6,0.7-3.1,0-4.6c-0.3-0.7-1.1-1.5-1.9-1.8
		c-1.1-0.3-1.6,0.7-1.9,1.6c-0.7,1.6-1.3,3.3-2,5c-2.8,6-5.7,11.9-8.6,17.8c-0.4,0.9-0.9,1.5-1.9,1.6c-1.1,0.2-1.9,1.8-1.6,3.3
		c0.2,1.1,0.7,1.6,2,1.6c1.9-0.2,4-0.3,5.9-0.4c4-0.2,8.1-0.7,12-1.1c2.5-0.2,4-0.4,6.4-0.7C125.2,34,126.4,32.4,126.2,29.9z"/>
	<path fill="#FF4A8F" d="M99.6,11.3c0.2-0.4,0.4-1.1,0.3-1.3c-0.6-1.5-1.1-2.8-2.6-3.8c-0.9-0.6-1.6-0.7-2.2,0
		c-0.7,1.1-1.5,2.2-1.9,3.5c-1.1,3.3-2.2,6.8-3.3,10.3c-1.3,4.6-2.5,9-3.7,13.4c0.2,0,0.2,0,0.3,0.2c-0.2,1.3,1.1,2.8,2.4,2.9
		c1.6,0.2,3.3-0.7,3.5-2c1.3-5.4,1.9-10.8,4-16.1C97.2,15.9,98.4,13.7,99.6,11.3z"/>
</g>
</svg>
