<?xml version="1.0" encoding="utf-8"?>
<!-- Generator: Adobe Illustrator 18.0.0, SVG Export Plug-In . SVG Version: 6.00 Build 0)  -->
<!DOCTYPE svg PUBLIC "-//W3C//DTD SVG 1.1//EN" "http://www.w3.org/Graphics/SVG/1.1/DTD/svg11.dtd">
<svg version="1.1" id="Layer_1" xmlns="http://www.w3.org/2000/svg" xmlns:xlink="http://www.w3.org/1999/xlink" x="0px" y="0px"
	 viewBox="0 0 290 41" enable-background="new 0 0 290 41" xml:space="preserve">
<g>
	<path fill="#FF4A8F" d="M129.6,23.3c-0.8-1.7-1.8-3.1-3.6-3.7c-1.1-0.4-2.7-0.2-4-0.6c0.6-0.2,0.8-0.6,1.1-0.7
		c2.5-1.8,4.8-3.6,7.3-5.2c0.7-0.6,0.8-1.1,0.4-1.8c-0.4-0.8-0.8-1.7-1.1-2.5c-0.4-1.2-1.2-1.7-2.5-1.7c-3.2-0.2-6.9,0.2-10,1.2
		c-1.1-0.2-1.4-0.2-2.7-0.6c-0.7-0.2-1.2,0-1.7,0.6c-0.7,1.2-1.5,2.1-2.7,2.7c-0.7,0.2-0.7,0.7-0.7,1.7c0.2,1.5,0.6,3.1,0.6,3.1
		s-2.3,5.8-3.3,8.3c-0.7,1.9-1.5,3.9-2.2,5.6c-0.6,1.5-0.6,1.5-2.2,1.1c-0.7-0.2-1.5-0.2-2.2-0.2c-0.2,0-0.8,0.4-1,0.7
		c-0.2,1.8,1.2,4,3.1,4.3c3.1,0.6,6.2,0.4,9.3-0.2c2.7-0.6,5.6-1.4,8.3-2.2c3.3-1.1,6.5-2.2,9.3-4.4c1.4-1.1,2.2-2.2,1.4-3.9
		C130,24.1,129.8,23.7,129.6,23.3z M120.5,13.1c0,0.2-1.9,2.1-5.6,3.5c0.2-1,0.8-2.1,0.8-2.1C116.6,13.9,118.1,13.7,120.5,13.1z
		 M109.9,30.8c0.8-2.5,1.5-4.7,2.2-6.9c0.2-0.8,0.8-1,1.5-1c3.9,0,10.2,1.4,11,2.2C120.3,28.5,115.2,29.7,109.9,30.8z M102.6,26.2
		c0.4-0.8-0.4-2.9-1.1-3.5c-1.1-0.7-2.5-0.6-3.5,0.2c-0.4,0.4-0.8,0.7-1.4,1c-2.7,1.4-5.6,2.7-8.3,4.2c-1,0.4-1.9,0.7-2.9,1
		c-0.2-0.2-0.2-0.2-0.2-0.2c0.4-1.4,2.1-4.7,2.7-6c0,0,0.6-0.4,1.1-0.6c2.2-0.7,4.6-1.4,6.6-2.2c1.9-0.7,3.9-1.5,6.1-1.7
		c0.2,0,0.8-0.4,0.8-0.7c0.2-0.8,0.4-1.7,0.2-2.3c-0.2-1.8-1.1-2.9-3.1-2.2c-0.2,0.2-0.7,0.2-1,0.2c-2.3,0.8-4.7,1.7-7.5,2.5
		c0.6-1,1.1-1.7,1.4-2.5c0.4-1,1.1-1.4,2.1-1.7c2.3-0.7,4.6-1.7,6.9-2.3c1.7-0.6,3.5-1.1,5.2-0.2c1.2,0.6,2.2-0.4,2.1-1.8
		c0-0.4-0.2-1-0.2-1.5c-0.2-1.7-0.8-2.2-2.7-2.3c-0.6,0-1,0-1.5,0.2c-2.2,0.6-4.4,1.1-6.6,1.7c-1.4,0.4-1.7,0.2-2.9-0.8
		c-1-1-1.9-1-2.2-1c-1.5,0.7-1.7,1.9-2.3,3.3c-0.6,1-1.2,1.4-2.2,1.7c-2.7,0.7-3.7,1.1-6.4,1.8c-0.6,0.2-1.1,0.4-1.4,0.7
		c-0.6,0.7-0.4,2.7,0.2,3.3c0.8,1.1,1.8,1.2,3.2,0.8c1-0.2,0.7-0.2,1.9-0.6c-0.4,1-0.8,1.7-1.1,2.3c-0.4,0.8-0.8,1.4-1.7,1.7
		c-1.4,0.6-1.8,1.8-1.4,3.2c0.2,0.4,0.2,1.1,0.2,1.1c-0.6,1.7-2.2,4.8-2.7,6.5c-0.4,1.5,0,2.9,1,3.9c1.9,1.7,4.8,1.8,6.9,0.4
		c0.2-0.2,0.2-0.2,0.4-0.2c4.7-2.1,9.4-4.3,14.1-6.5C101.9,27,102.4,26.6,102.6,26.2z M31,22.4c0.2-0.6,0.2-1.2,0-1.8
		c-0.2-1.2-1.1-2.2-2.2-2.2c-1.2,0-2.7,0-3.9,0.2c-2.3,0.2-4.7,0.2-7.3,0.6c0.7-1.5,1.2-2.7,1.8-4.2c0.4-1.1,0.8-1.1,1.7-1.2
		c2.5-0.2,5-0.7,7.5-1c2.7-0.2,5.6-0.4,8.1-0.7c0.4,0,0.7-0.4,0.8-0.7c0.6-1.4,0.2-2.5-0.4-3.7c-0.4-0.8-1.1-1.1-1.9-1
		C31.2,7,27,7.6,22.9,8c-1.2,0.2-1.5,0.2-2.7-0.8c-1.2-1.1-2.9-0.8-3.6,0.7c-0.4,0.8-0.8,1.1-1.8,1.2c-3.3,0.2-6.6,0.4-9.7,1.7
		c-1,0.4-1.9,1.1-2.7,1.8c-0.6,0.4-0.2,2.5,0.4,3.3S4.3,17,5,17.2c0.7,0,1.4-0.2,1.8-0.7c1.4-1.2,3.1-1.5,6.5-1.9
		c-0.2,0.6-0.6,1.2-0.7,1.8c-0.7,1.8-1.4,3.1-1.4,3.1s-1,0.2-2.3,0.4c-0.8,0-2.1,0.6-2.1,1.7s0.2,2.3,1.2,3.1c0.7,0.6,1,0.2,0.7,0.7
		c-0.6,1.4-2.7,5.8-3.2,7.2C4.7,34.4,5.3,36,7,36.7c1.5,0.7,3.2-0.2,3.9-1.5c1-2.1,3.1-7.1,3.9-9.1c0.4-1.1,0.6-1.2,1.9-1.4
		c2.2,0,4.4-0.2,6.6-0.4c2.1-0.2,4-0.2,6.1-0.2C30.7,23.7,30.9,23.7,31,22.4z M78.9,18.9c-1.1-0.8-2.1,0-2.9,0.4
		c-1.5,1-3.1,2.2-4.4,3.5c-3.6,3.2-7.5,5.8-11.9,7.7c-0.4,0.2-1.8,0.6-1.7-0.6c1-5,3.1-10,6-14.1c1.1-1.5,2.2-2.7,4.2-3.5
		c-0.2,1.1-0.7,2.1-0.8,3.1c-0.2,1.8,0.2,2.5,2.1,2.7c1,0,1.8,0,2.7,0c0.4,0,0.8-0.4,1-0.8c0.8-2.5,1.7-5,2.2-7.6
		c0.2-1.4,0.2-1.8,0.2-3.2c-0.2-1-1-2.3-2.1-2.5c-1-0.2-1.7,0.2-2.1,1.1c-0.2,0.6-0.4,0.7-0.6,1c-1.2,0-2.2-0.2-3.2,0
		c-2.7,0.6-5,2.1-6.8,4.3c-2.7,3.3-6.6,9.4-8.1,19.4c-0.4,3.3,0.2,4.8,3.5,6.2c0.8,0.2,3.6,1.1,5.8,0c3.5-1.7,6.5-3.9,9.4-6.2
		c1.9-1.5,3.9-3.2,6.1-4.2c1.7-0.7,2.1-1.8,2.3-3.2C80.2,20.8,79.9,19.7,78.9,18.9z M49.6,19.5c0.2-3.1,0.6-5.8,1-8.6
		c0.2-1,0.2-1.9-0.7-2.5c-1.1-0.7-2.5-1.2-3.9-0.6c-0.8,0.4-1.5,1.1-2.2,1.8c-3.5,3.3-6.2,7.3-9,11.4c-1,1.5-1.5,3.3-3.5,4.2
		c-1.5,0.7-2.2,1.8-2.3,3.5c0,0.6,0.2,0.7,0,1.1c-0.7,1.1-1.9,2.7-2.7,3.7c-0.7,0.7-0.8,1.4-0.4,2.1c0.7,1.1,1.4,1.5,2.5,1.2
		c0.6-0.2,1.2-0.4,1.7-0.8c1.4-1.5,2.9-3.1,4.2-4.7c2.1-2.9,2.2-3.3,4.6-3.6c1.7-0.2,3.3-0.8,5.2-1.2c0,0.6,0,1-0.2,1.4
		c-0.2,2.1-0.4,4.3-0.4,6.4c0,1.4,1,2.3,2.2,2.3c0.8,0,1.8-0.2,2.7-0.4c1.1-0.4,1.1-1.5,0.7-2.7c-0.2-0.4-0.2-1.8-0.2-2.2
		c0.2-1.2,0.2-2.1,0.2-3.3c0.2-2.7,0.2-2.5,1.8-3.3c0.8-0.4,1.1-1.1,1.1-2.1C51.5,20.8,50.9,19.9,49.6,19.5z M44.6,20.7
		c0,0.2-0.2,0.6-0.4,0.7c-1.1,0.4-2.3,0.7-3.5,1.1c-0.2,0.2-0.4-0.2-0.2-0.4c1.4-1.8,2.9-3.5,4.3-5.2l0.2-0.6
		C44.9,17.5,44.7,19.5,44.6,20.7z M208.3,33.2c-3.7-2.5-8.9-6.2-11.5-10c-1.1-1.7-2.5-3.2-3.7-4.8c0.2-0.2,0.4-0.4,0.6-0.6
		c1.5-0.8,2.9-2.1,4.3-2.9c1.5-0.8,3.6-2.5,5.2-3.3c0.4-0.2,0.8-0.6,1-1c0.4-1.1,0.2-1.1,0.4-2.3c0.2-0.8-1.4-2.7-2.1-2.7
		s-1.4,0.2-1.9,0.6c-2.3,1.5-4.6,3.3-6.9,4.8c-1.1,0.8-2.5,1.2-3.9,2.1c0.7-2.2,1.4-5,1.9-6.9c0.4-1.5-1.4-1.4-2.9-1.7
		c-1.4-0.2-2.5-0.2-3.1,1.5c-1.2,3.5-2.7,6.8-3.6,10.2c-1.2,4.4-2.2,8.9-3.3,13.5c-0.2,0.4,0.2,1.2,0.6,1.2c1.1,0.4,2.2,0.6,3.3,0.7
		c1,0.2,1.5-0.6,1.9-1.4c0.2-0.8,0.6-1.7,0.7-2.5c0.4-1.9,0.7-3.9,1.1-5.6c0-0.2,0.2-0.7,0.4-1.1c0.2,0.4,0.4,0.6,0.6,0.7
		c2.7,3.9,5.6,7.5,9.4,10.2c1.9,1.5,5.6,4,7.7,5.2c1.1,0.6,2.3,0.8,3.6-0.2C209.8,35.5,209.9,34.3,208.3,33.2z M177.8,10.4
		c-0.4-0.4-0.7,0-1-0.6c-0.8-2.5-3.2-5.2-5.6-4.7c-1.4,0.2-2.9,0.7-4.2,1.4c-2.7,1.7-5,3.9-6.9,6.5c-2.3,3.5-4.3,7.1-4.4,11.2
		c-0.2,3.3,0.7,6.4,4,8.1c2.2,1.2,4.6,2.1,7.2,1.7c0.6-0.2,1-0.2,1.5-0.2c2.7-0.8,4.7-2.5,6.1-4.8c1.9-3.2,3.6-6.4,4.2-10
		c0.2-1.9,0.2-3.9,0.4-5.6C179.2,12,178.6,11,177.8,10.4z M171.1,23.5c-0.8,1.9-1.9,3.9-3.6,5.2c-1.4,1.2-2.9,1.2-4.4,0.8
		c-1.5-0.4-2.1-1.7-2.2-3.1c0-0.4,0-0.8,0-1.2c0-4.7,2.1-8.6,4.8-12.2c0.7-1,1.2-1.4,2.2-2.2c1.4-1.1,4.7-0.2,5,1.5
		C173.5,16.4,172.6,20,171.1,23.5z M152.3,9.8c-0.4-0.6-1.2-1.1-1.9-1.2c-1.4-0.2-2.7-0.4-4.2-0.6c-2.1-0.2-4,0.2-5.8,1.2
		c-2.1,1.1-3.7,2.7-5.2,4.6c-1.9,2.7-3.5,6-3.6,9.4c-0.2,4.2,1.5,7.6,5.4,9.6c2.7,1.4,5.4,1.1,8.1,0c3.5-1.5,5.4-4.6,7.2-7.7
		c1.7-2.7,2.1-6,2.3-9.4C154.7,13.7,153.7,11.6,152.3,9.8z M148.3,19.2c-0.6,2.5-1.4,4.7-3.2,6.5c-1,1-2.1,1.9-3.2,2.7
		c-1.2,0.8-2.7,0.7-3.9-0.2c-1.4-0.8-1.4-2.5-1.4-3.2c0-0.2-0.2-0.4-0.2-0.4c0.4-1.4,0.7-2.7,1.2-4.2c0.8-1.9,1.7-4,3.5-5.6
		c0.8-0.7,1.7-1.5,2.7-2.1c1.4-1,2.9-0.7,4.2-0.2c0.6,0.2,1,1.2,1,1.9C149,16.2,148.5,17.8,148.3,19.2z"/>
</g>
</svg>
