<?xml version="1.0" encoding="utf-8"?>
<!-- Generator: Adobe Illustrator 18.0.0, SVG Export Plug-In . SVG Version: 6.00 Build 0)  -->
<!DOCTYPE svg PUBLIC "-//W3C//DTD SVG 1.1//EN" "http://www.w3.org/Graphics/SVG/1.1/DTD/svg11.dtd">
<svg version="1.1" id="Layer_1" xmlns="http://www.w3.org/2000/svg" xmlns:xlink="http://www.w3.org/1999/xlink" x="0px" y="0px"
	 viewBox="0 0 290 41" enable-background="new 0 0 290 41" xml:space="preserve">
<g>
	<path fill="#FF4A8F" d="M256.7,1.2c-0.1-0.3-0.4-0.4-0.8-0.4c-0.8,0-1.6,0-2.5,0.1c-5.8,1.3-11.6,2.9-17.2,4.4
		c-2.5,0.7-2,0.7-4.4,1.5c-1.2,0.4-1.7,2.3-1.3,3.7c0.3,0.8,1.5,1.5,2.8,1.2c0.7-0.1,1.3-0.4,2-0.5l0,0c0,0,0,0,0.1,0
		s0.4-0.1,0.5-0.1c2.7-0.8,2.8-0.8,4-1.1l0,0c0.3-0.1,0.5-0.1,1.1-0.1c-0.3,0.7-0.4,1.3-0.5,1.9c-1.3,3.3-2.9,6.8-4.1,10
		c-0.9,2.7-1.9,5.3-2.7,8.1c-0.4,1.3,0.5,2.8,1.7,2.9c2,0.4,3.6-0.4,3.9-2c0.1-0.5,0.1-1.2,0.1-1.7c0.1-0.8,0.5-1.9,0.9-3.3
		c0.3-0.7,0.5-1.3,0.7-2c2-5.5,5.2-12.9,6.3-15.2c0.3-0.4,0.3-0.7,0.5-0.9c0.1,0,0.4-0.1,0.5-0.1c2.3-0.4,4.3-1.3,6.7-0.5
		c0.7,0.3,1.6-0.1,1.9-0.8C257.9,4.2,257.7,2.6,256.7,1.2z"/>
	<path fill="#FF4A8F" d="M85.9,27.2c-0.9,0.3-7.5,2-11.1,2.5c-0.5,0.1-0.9,0-1.7,0c0.4-1.1,0.5-2.3,1.1-3.1
		c1.5-2.9,4.8-8.8,6.4-11.7c0.5-0.9,1.3-1.9,2-2.9c0.1-0.3,0.5-0.8,0.4-1.3c-0.3-1.9-0.3-3.3-0.9-5.1c-0.4-1.3-2.4-1.3-3.1,0
		c-0.8,1.5-1.7,3.1-2.7,4.5c-2.9,5.1-7.7,13.1-9.1,18.8c-0.5,2.5-0.1,4.3,1.9,5.1c0.4,0.1,0.9,0.3,1.3,0.4c1.6,0.4,4.3,0.5,10.6-0.5
		c6.7-1.2,5.9-1.5,6.2-2.3l0,0c0.4-0.7,0.7-2.5,0.5-3.7C88,26.8,87,26.8,85.9,27.2z"/>
	<path fill="#FF4A8F" d="M104.3,7.1c0.1-0.1,0.1-0.5,0-0.7c-0.7-1.1-1.6-1.9-2.9-1.9c-1.2,0-2.4,0.3-2.9,1.5
		c-0.3,0.7-0.7,1.2-0.9,1.7c-1.9,4.5-2.7,6.3-4.5,11.1c-0.9,2.3-1.9,4.4-2.8,6.7c-0.4,1.1,0,1.7,1.1,2.3c0.5,0.1,1.1,0.3,1.6,0.4
		c1.5,0.1,2.4-0.7,2.9-1.9c1.5-3.6,3.2-7.2,4.8-10.7C102.2,11.6,102.6,10.8,104.3,7.1z"/>
	<path fill="#FF4A8F" d="M39.4,8.1c-0.4-1.1-1.2-2-1.9-3.1c-0.4-0.7-1.1-0.9-1.9-0.4c-1.5,0.9-3.2,1.7-4.4,2.9
		c-3.3,2.9-6.3,5.8-9.5,8.8c-0.9,0.9-2,1.9-3.1,2.9l0,0c0-1.2,0-2.5,0-3.6s0.4-2.4,0-3.2c-0.7-1.5-1.7-2.8-3.1-4
		c-0.7-0.9-1.9-0.4-2.3,0.7c0,0.1-0.3,0.4-0.3,0.5c-2.3-1.1-3.2-0.7-4,1.5c0,0.1-0.1,0.4-0.3,0.5C6.3,16.5,4.2,21.2,2.1,26
		c-0.4,0.8-0.7,2-0.4,2.8c0.4,0.8,1.1,1.3,1.9,1.9c0.4,0.3,0.9,0.3,1.3,0c0.7-0.4,1.3-0.9,1.7-1.5c1.2-1.6,2.4-3.6,3.6-5.3
		c0.7-1.1,1.5-2.3,2.5-3.5c0.1,0.4,0.1,0.5,0.1,0.7c-0.3,2.5,1.1,4.1,2.9,5.6c0.3,0.3,0.9,0.4,1.3,0.3c1.1-0.5,2.4-1.1,3.3-2
		c2.5-2.4,4.8-4.7,7.2-7.2c0.4-0.4,0.8-0.9,1.2-1.3l0.1,0.1c-1.3,2.9-2.8,5.9-4,8.9c-0.9,2.8-2.4,5.3-3.7,7.9
		c-0.8,1.6-0.8,3.1,0.1,4.4c0.7,1.1,2.4,1.7,3.5,1.1c0.7-0.4,1.2-1.2,1.5-1.9c1.5-3.5,2.8-6.9,4.4-10.2c2.7-5.6,5.3-11.2,8-16.7
		C39.4,9.7,39.7,8.8,39.4,8.1z"/>
	<path fill="#FF4A8F" d="M55.1,5.7c-0.7,0.1-1.5,0.4-2,0.8c-4.5,3.3-8.3,7.6-11.9,12c-0.7,0.8-1.1,1.6-2.3,1.3
		c-0.1,0-0.4,0.1-0.7,0.3c-1.6,1.1-2,3.3-0.9,4.9c-1.5,2-2.9,4-4.4,6c-0.5,0.7-0.7,1.3,0,1.9c1.3,1.1,4.5,0.9,5.5-0.5
		c1.3-2,2.7-4.1,4-6.3c0.4-0.5,0.8-1.5,1.2-1.5c1.9-0.3,4-0.3,6.3-0.4c-0.4,1.3-0.8,2.4-1.1,3.5c-0.3,1.1-0.7,2.4-0.8,3.5
		c-0.1,0.9,0.5,1.7,1.3,1.9c1.3,0.3,2.8,0.4,4.1,0.3c0.5,0,1.3-1.1,1.2-1.6c-0.5-2.8,0.5-5.2,1.2-7.9c0.7-3.2,1.7-6.2,2.4-9.5
		c0.4-2.5,0.8-5.1-0.7-7.6C56.9,6.1,56.2,5.4,55.1,5.7z M52.4,13.7c-0.1,0.3-0.7,3.6-1.1,5.3c-0.1,0.3-0.4,0.4-0.7,0.4
		c-1.3,0-2.7,0-4,0l5.6-5.8C52.2,13.4,52.4,13.3,52.4,13.7z"/>
	<path fill="#FF4A8F" d="M71.9,8.1c-0.1-0.1-0.3-0.3-0.3-0.4c-1.7-1.7-4.1-1.5-5.3,0.7C66,9,65.8,9.7,65.5,10.2
		c-2.7,6.3-5.1,12.7-7.7,19c-0.1,0.3,0,0.7,0.1,0.8c1.1,1.5,3.9,1.5,4.8,0c0.5-0.8,1.1-1.9,1.5-2.9c1.7-4.3,3.6-8.5,5.3-12.8
		c0.7-1.6,2.4-5.2,2.5-5.6C72.2,8.4,71.9,8.1,71.9,8.1z"/>
	<path fill="#FF4A8F" d="M228.5,7.9c-0.5-2-1.6-2.5-2.7-2.5h-0.1h-0.1c-1.3,0.1-2.8,0.1-4.1,0.5c-3.3,1.1-6.7,2.4-9.2,3.3
		c-3.5,1.3-6,2.8-8.3,4.4c-1.2,0.9-2,2.5-2,4h-0.1l0.1,0.8c0,0,0,0,0,0.1l0,0v0.1c0.3,1.1,0.8,2,1.7,2.7c1.1,0.8,3.1,1.6,6,2.7
		c1.3,0.4,2.9,0.7,4.5,0.9c1.1,0.1,2.3,0.3,3.2,0.5c-1.6,0.9-3.5,1.5-5.1,1.9l-0.4,0.1c-2.9,0.7-2.9,0.7-6,0.8h-0.3
		c-0.3,0-0.7,0-0.9,0c-2,0-3.6-0.1-5.1-0.7h-0.1c-0.8-0.3-1.9-0.4-2.8,0.1c-0.4,0.3-0.5,0.7-0.4,1.1c0.3,1.2,0.8,2.9,2.5,3.6
		c0.8,0.4,1.7,0.5,2.7,0.7c0.4,0,0.9,0.1,1.3,0.1c1.3,0.1,2.7,0.4,4,0.4c0.1,0,0.4,0,0.5,0c0.7,0,1.2,0,1.7,0c2.4-0.1,2.9-0.1,6-1.1
		c2.4-0.7,5.2-1.9,7.7-4.5c1.6-1.7,1.3-2.5,0.4-4.3l-0.1-0.3c-0.9-1.7-2.7-2.4-4.3-2.7c-1.7-0.4-3.2-0.7-4.4-0.8
		c-1.3-0.3-2.8-0.4-4.7-0.9c-0.5-0.1-1.1-0.4-1.7-0.7c-0.1-0.1-0.3-0.1-0.4-0.3c3.6-2.5,7.6-3.7,11.5-4.9c0.7-0.3,1.3-0.4,2-0.7
		c0,0.5-0.1,0.8-0.1,1.5c0,1.2,0.3,2.9,2.4,2.9h0.1c1.2,0,2.9-1.1,3.1-1.5c0.1-0.3,0.1-0.4,0.3-0.7c0.1-0.3,0.1-0.5,0.3-0.7
		c0.1-0.3,0.3-0.7,0.3-0.9c0.3-0.7,0.4-1.3,0.8-1.7C228.6,9.8,228.7,9,228.5,7.9z"/>
	<path fill="#FF4A8F" d="M127.7,8c-0.4,0.9-0.8,1.7-1.3,2.7c-1.7,3.2-3.6,6.3-5.3,9.3c-0.9,1.6-2,3.3-3.2,4.9c-0.1,0-0.1,0-0.3,0
		c-0.5-3.1-1.3-6.2-1.6-9.2c-0.3-2.9-1.1-5.3-3.3-7.3c-0.7-0.7-1.6-1.2-2.4-0.5c-1.3,1.2-2.8,2.8-4,4.3c-0.7,0.7-0.9,1.6-1.5,2.7
		C102,20,100.1,25.5,98.4,31c-0.1,0.5,0,1.5,0.3,1.9c1.5,1.6,4,1.1,4.9-0.9c0.8-1.6,1.3-3.5,2.4-5.1c1.5-2.7,3.1-5.2,4.8-8.1
		c0.3,0.5,0.3,0.8,0.4,1.1c0.8,2.9,1.6,5.8,2.7,8.5c1.2,3.2,5.3,3.6,7.3,0.9c2.4-3.6,4.5-7.2,6.8-10.8c1.5-2.7,3.1-5.3,4.5-8
		c0.8-1.2,0.3-2.3-0.5-3.2C129.8,4.9,129,5.2,127.7,8z"/>
	<path fill="#FF4A8F" d="M193.9,26c1.2-2.8,2.4-5.6,3.6-8.4c1.6-3.5,3.3-6.9,4.9-10.3c0.1-0.3,0.1-0.8,0-1.1
		c-0.5-1.3-1.7-2.4-3.2-3.1c-1.2-0.7-2-0.1-2.5,1.3c-0.5,1.9-1.1,3.9-2,5.6c-2.5,4.5-4.7,8.9-4.8,13.9c0.1,0.4,0.3,0.8,0.3,1.2
		c0.1,1.5,0.7,2.3,1.9,2.5C193.4,27.9,193.5,26.8,193.9,26z"/>
	<path fill="#FF4A8F" d="M156.1,16.1c-0.7-0.1-1.2-0.3-1.9-0.3c-3.1,0-6,0.1-8.9,0.3c-1.9,0-2,0.1-2.7,2c0,0.1,0,0.1,0,0.3
		c-0.5,1.7,0.1,2.7,2,2.7c1.2,0,2.7-0.1,3.9-0.1c1.1,0,1.1,0.4,0.9,0.5c-1.7,1.5-3.6,2.9-5.3,4.4c-2.3,1.7-4.7,3.1-7.5,3.9
		c-0.9,0.3-1.6,0-1.7-0.9c-0.1-1.2-0.4-2.5-0.1-3.6c1.1-4.7,3.6-8.7,6.8-12.3c1.3-1.6,2.9-3.2,5.1-3.7c1.6-0.4,2.7,0.1,3.1,1.7
		c0.1,0.4,0.4,0.9,0.7,1.1c3.1,0.8,4.4,0.7,5.3-2.5c0.1-0.3,0.5-2.5,0.3-4.5c-0.3-1.5-1.5-2-2.8-1.1c-0.4,0.3-0.7,0.7-1.1,0.9
		c-0.3,0.1-0.7,0.3-0.8,0.1c-1.7-1.2-3.9-0.8-5.8-0.5c-2.3,0.3-4.1,1.2-5.8,2.7c-4.3,3.6-7.3,8.1-9.2,13.4c-1.2,3.2-1.5,6.2-0.4,9.5
		c0.8,2.4,3.6,4.8,6.3,4.8s5.2-0.7,7.6-1.9c1.6-0.9,3.2-2.4,4.5-3.6c2.8-2.7,5.3-5.3,8-8.1c1.1-1.1,1.2-3.3,0.4-4.7
		C156.5,16.3,156.3,16.1,156.1,16.1z"/>
	<path fill="#FF4A8F" d="M185,23.3c-1.1,0.4-2.4,0.7-3.6,0.9c-4.3,1.2-6.9,1.9-11.2,3.3c0-0.1-0.1-0.1-0.1-0.1
		c0.7-1.6,1.2-3.5,2-5.1c0.8-1.7,1.9-3.5,2.8-5.2c1.1-2.5,3.5-6.7,5.1-8.7c0.5-0.8,1.2-1.6,1.1-2.8c-0.3-1.1-0.4-2.3-0.8-3.2
		c-0.3-0.7-1.1-1.2-1.7-1.3c-0.4-0.1-1.2,0.7-1.5,1.1c-2.4,3.9-4.7,7.7-7.1,11.6c-2.5,4.3-5.1,10.6-6,15.5c-0.5,2.7,0.1,3.9,2.8,4.5
		c0.4,0.1,0.9,0,1.3,0c3.3-0.8,6.8-1.3,10-2.4c3.2-0.8,4.8-1.5,8-2.5c0.1,0,0.1,0,0.3,0c0.8-0.1,1.5-0.7,1.6-1.5
		c0-0.9-0.1-1.9-0.5-2.8C186.8,23.5,186,22.9,185,23.3z"/>
</g>
</svg>
