<?xml version="1.0" encoding="utf-8"?>
<!-- Generator: Adobe Illustrator 18.0.0, SVG Export Plug-In . SVG Version: 6.00 Build 0)  -->
<!DOCTYPE svg PUBLIC "-//W3C//DTD SVG 1.1//EN" "http://www.w3.org/Graphics/SVG/1.1/DTD/svg11.dtd">
<svg version="1.1" id="Layer_1" xmlns="http://www.w3.org/2000/svg" xmlns:xlink="http://www.w3.org/1999/xlink" x="0px" y="0px"
	 viewBox="0 245.8 800 308.4" enable-background="new 0 245.8 800 308.4" xml:space="preserve">
<g>
	<g>
		
			<linearGradient id="SVGID_1_" gradientUnits="userSpaceOnUse" x1="242.5085" y1="568.988" x2="242.5085" y2="795.6758" gradientTransform="matrix(1.3769 0 0 -1.3769 0 1338.3821)">
			<stop  offset="8.170412e-02" style="stop-color:#FFB499"/>
			<stop  offset="0.359" style="stop-color:#FF9299"/>
			<stop  offset="1" style="stop-color:#FF2389"/>
		</linearGradient>
		<path fill="url(#SVGID_1_)" d="M385.9,342.5c-7.8-4.4-14.9-9.8-24.1-5.4c-39.8,18.7-34.8,13.1-79.4,29.7
			c5.1-12.5,10.5-23.7,16-43.2c32.4-9.9,80.7-29.5,110.4-44.8c-0.1,2.5-0.1,4.5-0.3,6.3c0,10.2,32.2,18.3,31.5,6.1l0,0
			c0.4-5.5,1.2-15.8,3.3-19c2.6-4,5-11.3-1.2-13.1c-6.2-1.8-16.1-7.6-21.1-10.9c-5-3.3-7.3-4.1-23.1,2.5s-66.6,30.7-94.5,39.1
			c-12,0.3-11.4-1.2-19.4,0.3c-8,1.7-13.8,5.2-14.9,8.3c-1.2,2.9-1.9,5.4-1.9,5.4c-25.2,9.4-35.1,15.8-42.1,19.1
			c-3,1.4-2.5,10.7-0.4,17.6c1.9,6.5,3.2,12.1,9.6,10.2c3.7-1.1,9.6-6.6,17.8-9.1c-6.9,17.5-12.4,36.2-15.4,45.7
			c-6.6,2.3-13.4,3.3-14.3,7.3c-1,4.4-1.5,14.6,6.5,18.9c0.1,0.1,0.4,0.3,0.7,0.4c-4.1,18-7,43.1-6.3,55.4
			c0.6,12.3,11,15.6,23.1,16.9c12.1,1.4,20.9,2.6,52.5-11.3c26.6-11.7,76.7-31.7,83.6-35.7c7-4,3.2-19.8,3.3-25.7
			c0-5.1-2.8-10.2-10.2-6.3c-12.5,6.3-53.3,24-67.7,30.2c-14.5,6.2-42.3,18.5-46.5,15c0-9.2,1.5-24.5,9.1-47.9
			c33.2-16.9,38.4-14.5,77.2-30.3c39-16,40.6-19.6,42.4-22.2C391.6,349,393.9,346.8,385.9,342.5z"/>
		
			<linearGradient id="SVGID_2_" gradientUnits="userSpaceOnUse" x1="471.9196" y1="568.988" x2="471.9196" y2="795.6758" gradientTransform="matrix(1.3769 0 0 -1.3769 0 1338.3821)">
			<stop  offset="8.170412e-02" style="stop-color:#FFB499"/>
			<stop  offset="0.359" style="stop-color:#FF9299"/>
			<stop  offset="1" style="stop-color:#FF2389"/>
		</linearGradient>
		<path fill="url(#SVGID_2_)" d="M785.1,333.8c14.7-4.5,14.9-9.2,13.4-11.7c-0.1-0.1-0.3-0.3-0.4-0.6c-0.4-1.1-1.2-2.3-1.9-4
			c-1.4-3.6-0.8-7.3-2.5-14.3c-1.7-7.2-5-19.3-35.7-18c-49.2,2.1-103,33-126.3,49.4c-23.3,16.4-29.3,23.4-27.7,34.3
			c1.7,10.9,13.2,20.1,29.1,28c15.8,8,82.5,15.8,117.7,25.7c-20.1,17.2-53.4,24.5-104.6,32.4c-35.1,5.4-77.4,9.6-101.6,11.7
			c-12,1.1-16.7,4.5-23.1,8.4c-6.5,3.9-15,6.1-19,10.6c-3.4,4-1.7,5.1,1.4,5.6c12.8,2.5,34.8,4.8,69.1,3.4
			c109.2-4.5,167.4-28.1,189.3-36.5c21.9-8.4,24.9-17.9,25.1-24c0.1-6.1-0.7-18.2-3.3-22.6c-2.6-4.4-2.3-6.7-25.3-15.3
			c-26.7-9.9-61.5-10.7-88.8-17.1c-11.7-2.8-16.8-4.7-18.9-5.8c-0.7-0.4-0.7-1.4,0-1.9c41.4-33.3,78.8-43,110.3-51.4
			c0.6,2.9,2.2,5.9,3.7,8.4l0,0C768.7,335.3,770.2,338.5,785.1,333.8z"/>
		
			<linearGradient id="SVGID_3_" gradientUnits="userSpaceOnUse" x1="120.3026" y1="568.988" x2="120.3026" y2="795.6758" gradientTransform="matrix(1.3769 0 0 -1.3769 0 1338.3821)">
			<stop  offset="8.170412e-02" style="stop-color:#FFB499"/>
			<stop  offset="0.359" style="stop-color:#FF9299"/>
			<stop  offset="1" style="stop-color:#FF2389"/>
		</linearGradient>
		<path fill="url(#SVGID_3_)" d="M327.5,531c-8.8-6.9-22.3-6.2-51.5-15.7c-47.9-15.6-112.4-50.8-141-104.9
			c79.4-48.6,76.6-71.9,76.1-76.6c-0.3-4.5-5-11.4-14.2-24.2c-29.7-41.3-80.4-21.6-130.9-3.6c-34.8,12.4-52.2,21.9-60.7,27.5
			c-5.2,4-3.7,6.9-2.2,13.6c1.5,7.2,8.4,15,12.8,15.8c1.9,0.1,4.7-0.4,9.8-3.2c4-2.2,15.4-5.9,15.4-5.9s-11.4,53.8-21.3,102.4
			S8.4,523,11.9,542.4c0,0,0.1,1,1,1.9l0,0c3.4,5.4,8.5,6.2,22.7,0c14.2-6.2,14.2-7.2,14.2-14.7c0.6-9.9,4.5-53,12.4-85.9
			c9.2-2.9,25.9-8.5,37.7-15.4c3.6,11.4,46.5,62.4,87.8,90.2c7.4,5.1,15.3,9.5,23.4,13.4l0,0c0.3,0.1,0.6,0.3,0.7,0.3
			c6.7,3.2,13.6,6.1,20.7,8.7c1.8,0.7,3.6,1.2,5.4,1.8c11.7,4.1,22.4,6.9,31.4,8.8c25.9,4.4,60.3-8.3,60.3-16.5
			C329.6,532.6,328.5,532.1,327.5,531z M67.2,418.9c2.6-17.1,13.8-61.7,15.4-67.3c1.7-5.6-2.3-7.2-7.8-12.5c0,0,0,0,9.2-4.5
			c26.2-13.1,68.6-21.3,75.5-21.1c6.9,0.3,38.7,6.6,0,41.7C120.6,390.3,80.5,411.6,67.2,418.9z"/>
		
			<linearGradient id="SVGID_4_" gradientUnits="userSpaceOnUse" x1="374.5565" y1="568.988" x2="374.5565" y2="795.6758" gradientTransform="matrix(1.3769 0 0 -1.3769 0 1338.3821)">
			<stop  offset="8.170412e-02" style="stop-color:#FFB499"/>
			<stop  offset="0.359" style="stop-color:#FF9299"/>
			<stop  offset="1" style="stop-color:#FF2389"/>
		</linearGradient>
		<path fill="url(#SVGID_4_)" d="M582,387c2.2,0.7,5.8-2.8,4.1-6.7c-6.9-17.3-3.3-21.2-13.5-24.2c-5.8-1.7-20.4-0.1-45.4,7.2
			c-25.1,7.3-52.9,16.5-52.9,16.5s13.1-32.4,15.4-41.2c35.7-11.3,78.3-32.6,110.3-38.1c0.3,6.2,6.1,19.7,10.1,19.8s4.3,0.3,15-3.4
			c10.7-3.7,9-3.7,11.3-6.6c2.3-3,4.1-13.9,4.3-18.2c0.1-4.3-6.9-9.4-16.2-21.6c-3.4-4.5-21.6-4.8-53.4,1.9
			c-31.7,6.7-113.6,35.8-149.7,54c-12.5,6.3-12.7,11.6-12.7,11.6c-1.5,1.4-4.1,15.8-3.6,18.6c0,2.9,1.5,5.2,4.7,5.8
			c3.2,0.6,5,0.8,18.6-5.9c13.8-6.7,13.9-4.8,13.9-4.8c-1.5,10.2-10.2,36.4-13.5,45.3c-7.4,2.9-14.7,5.9-15,9.9
			c-0.3,4.8-3.4,19.6,1.8,21.9c0.8,0.4,1.7,0.6,2.6,0.7c-3.6,17.6-15,55.8-19.3,63.8c-2.3,4.4-4.3,7-5.4,9l0,0
			c-0.1,0.1-0.1,0.3-0.3,0.4c-3.4,6.5-4.1,9.4,4.5,17.3c9,8.3,9.4,14,15,14c10.5,0,15.8-22.3,28.9-54.4c7-17.3,14.3-38.6,20-61.1
			c15.6-3.4,72.6-24.9,100.7-30.4C574.6,385.6,578.7,386,582,387z"/>
	</g>
</g>
</svg>
