<?xml version="1.0" encoding="utf-8"?>
<!-- Generator: Adobe Illustrator 18.0.0, SVG Export Plug-In . SVG Version: 6.00 Build 0)  -->
<!DOCTYPE svg PUBLIC "-//W3C//DTD SVG 1.1//EN" "http://www.w3.org/Graphics/SVG/1.1/DTD/svg11.dtd">
<svg version="1.1" id="Layer_1" xmlns="http://www.w3.org/2000/svg" xmlns:xlink="http://www.w3.org/1999/xlink" x="0px" y="0px"
	 viewBox="0 0 290 41" enable-background="new 0 0 290 41" xml:space="preserve">
<g>
	<g>
		<path fill="#FF4A8F" d="M121.1,3.4c-0.2-0.3-0.7-0.2-1-0.5c-0.9-0.8-1.9-1-2.3-0.3c-0.4,0.6-0.7,1.2-0.9,1.9
			c-1.6,5.8-3.1,11.5-4.7,17.3c-0.4,1.3-0.9,2.6-1.4,3.9c-0.1,0-0.1,0-0.3,0c-0.1-0.4-0.3-0.8-0.4-1.3c-1.1-4.3-1.6-8.8-3.4-13
			c-0.1-0.3-0.1-0.6-0.2-0.9c-0.4-1-0.7-1.9-1.1-2.9c-0.2-0.4-0.7-0.9-1.1-1.1c-0.7-0.4-1.4-0.7-2.3-1c-0.3-0.1-0.7-0.1-0.9,0.1
			c-0.3,0.2-0.6,0.5-1,0.8c-0.4-1.1-1.2-1.6-2.2-1c-0.5,0.3-1,1-1.3,1.6c-2.6,7.1-4.5,14.3-4.9,21.9c0,0.6,0.4,1.4,0.9,1.7
			c0.7,0.4,1.5,1.2,2.5,0.4c0.1-0.1,0.3-0.2,0.5-0.3c0.7-0.4,1.2-1,1.4-1.8c1.3-4.8,3.1-9.6,5.8-14.1c0.6,1.6,1,3.1,1.4,4.6
			c0.7,2.3,1.4,4.5,2.1,6.7c0.5,1.7,1,3.3,1.7,4.9c0.3,0.6,1,1.1,1.7,1.3c0.7,0.2,1.6,0,2.3,0.2c1,0.2,1.5-0.4,1.8-1.2
			c0.6-1.3,1.1-2.6,1.5-3.9c1.7-5.4,3.3-10.9,4.9-16.3c0.6-2.2,0.9-4.5,1.3-6.8C121.7,4.2,121.4,3.7,121.1,3.4z"/>
		<path fill="#FF4A8F" d="M87.9,3.9c-0.8-0.8-1.5-0.7-2.2,0c-0.8,0.7-1.6,1.5-2.3,2.3c-2.8,3.3-5.6,6.7-8.4,9.9
			c-1.1,1.3-2.5,2.3-3.8,3.5c-0.1-0.1-0.2-0.2-0.3-0.2c0-0.3,0-0.5,0.1-0.8c0.3-0.8,0.6-1.6,0.8-2.4c0.3-0.9,0.5-1.8,0.7-2.7
			c0.3-1,0.5-1.9,0.8-2.9c0.1-0.4,0.3-0.9,0.3-1.3c0-1.5-0.4-2.8-1.6-3.7c-0.4-0.3-0.8-0.3-1.2-0.1c-1.5,0.7-2.3,2.1-2.8,3.8
			c-0.8,2.9-1.7,5.8-2.4,8.7c-0.4,1.7-0.7,3.4-0.8,5.2c0,0.9,0.4,2.1,1,2.8c0.8,0.8,2,1.1,3,1.6c0.2,0.1,0.6,0.1,0.8,0
			c2.6-1.2,5.7-4.3,5.7-4.3c1.9-1.8,3.6-3.8,5.4-5.7c0.6-0.7,1.3-1.4,2.1-2.3c0,0.5,0.1,0.7,0,0.9c-0.3,3.3-0.7,6.7-1,10
			c-0.1,0.9,0,1.7,0.2,2.6c0,0.3,0.5,0.5,0.8,0.7c0.9,0.4,1.9,0.7,3.1,1.1c0.7-0.5,0.6-1.6,0.7-2.6c0,0,2.7-12.1,3.3-16.9
			C90.1,8.3,90,5.9,87.9,3.9z"/>
		<path fill="#FF4A8F" d="M222.2,2.3c-0.4-0.2-1-0.3-1.5-0.3c-0.7,0.1-1.5,0.4-2.2,0.4c-2.1,0-3.9,0.8-5.5,2.2
			c-5.3,4.6-8.3,10.6-9.5,17.6c-0.4,2.5,0.8,4.6,2.3,6.4c1.7,1.9,3.8,2.7,6.2,2.9c0.7,0.1,1.4,0,2.1-0.2c0.7-0.2,1.4-0.4,2-0.7
			c3.7-1.9,7-4.5,9-8.5c0.7-1.5,1.1-3.1,1.7-4.6c0.3-0.7,0.6-1.3,0.9-2c0.1-0.2,0.3-1.1,0.3-1.3c-0.1-2.4,0.2-4.2-1-6.5
			C225.7,5.4,224.4,3.4,222.2,2.3z M222.4,14.2c-0.2,0.1-0.3,0.2-0.2,0.4c0.2,2.3-1.1,4.1-2.2,5.8c-1.3,2.2-2.9,4.3-5.3,5.4
			c-1.9,0.8-3.6,1-5.3-1.1c-1.2-1.4-0.8-2.8-0.4-4.3c1.1-3.9,3.3-7.2,5.8-10.4c2.2-2.8,5.1-2.5,6.6,0.8
			C221.8,12,222.1,13.1,222.4,14.2L222.4,14.2z"/>
		<path fill="#FF4A8F" d="M53.7,5.6c-0.6-1.2-1.6-1.1-2.4-0.5c-1.8,1.2-3.5,2.5-5.1,3.9c-4.5,3.8-7.2,8.9-8.2,14.8
			c-0.3,1.5-0.1,3.2,0.4,4.7c1.1,3.4,5.1,5.8,9.2,5.1c4.1-0.7,9.1-3.9,12.2-8.3c3.8-5.4,3.7-12.8,0-18.4C58.7,5,55.7,4.3,53.7,5.6z
			 M54.6,23.9c-2.4,2.2-5.2,3.6-8.4,4.1c-3.1,0.5-3.7-2-3.2-4.4c1-4.7,4.3-7.7,7.7-10.6c0.8-0.7,1.7-1.4,2.4-2.2
			c0.1-0.1,0.2-0.4,0.2-0.6h0l0,0l0,0l0-0.3c0-0.1,0-0.1,0-0.2c0,0,0,0,0,0l0.1-0.4c0.2-0.1,0.4-0.2,0.6-0.1c0.1,0,0.3,0.5,0.3,0.8
			c0.1,1,0.7,1.5,1.5,1.4c1-0.1,1.4,0.4,1.6,1.3C58.7,17,58,20.8,54.6,23.9z"/>
		<path fill="#FF4A8F" d="M39.9,7.8c0.3-0.5,0.5-1.1,0.8-1.7c0.5-1.2,0.7-2.1-0.5-3.2c-1.5-1.6-3.4-1.3-4.3,0.8
			c-0.2,0.5-0.6,1.2-1,1.3c-2.5,0.7-4.9,1.2-7.4,1.8c-5.3,1.3-10.4,3-15.1,6C11,13.6,10.1,15,9,16.1c-0.2,0.2-0.2,0.7-0.1,1
			c0.3,0.7,0.6,1.5,1.1,2.1c0.5,0.6,1.2,1.4,1.9,1.6c1.1,0.4,2.4,0.4,3.6,0.6c2.4,0.3,4.8,0.5,7.2,0.8c2.1,0.2,4.1,0.5,6.1,0.8
			c-0.6,0.7-1.2,1.2-1.9,1.5c-4.4,1.9-8.9,3.3-13.6,3.8c-3.1,0.3-6.2,0.7-9.3,1.1c-0.9,0.1-1.8,0.3-2.6,0.6
			c-0.3,0.1-0.6,0.6-0.6,0.8c0,0.3,0.4,0.9,0.6,0.9c2,0.6,4.2,0.9,7,1.1c0.1,0,0.3,0,0.4,0.1c0.4,0.1,0.8,0,1.3,0c1.2,0,2.5,0,4,0.1
			c0.1,0,0.2,0.1,0.3,0.1c0.1,0,0.2-0.1,0.3-0.1c4.5,0,8.7-0.5,12.4-2.3c0,0,0,0.1,0.1,0.1c0.8-0.5,1.7-1,2.4-1.6
			c0.2-0.1,0.4-0.3,0.5-0.4c0.4-0.3,0.7-0.6,1.1-0.9c0,0,0,0,0,0c0.6-0.5,1.2-1,1.8-1.6c1.2-1.1,2.4-2.1,2.1-4c-0.1-1,0.5-2,0-3.3
			c-0.5-1.3-11.2-1.3-17-2.7c0.3-0.3,0.5-0.4,0.6-0.4c4.9-2.1,10-3.3,15.2-4c0,0,1.7,1.1,2.5,1.1C37.3,12.8,38.9,10.1,39.9,7.8
			C39.9,7.8,39.9,7.8,39.9,7.8z"/>
		<path fill="#FF4A8F" d="M201.7,22.7c-0.1-0.5-0.4-0.9-0.7-1.2c0,0,0-0.1-0.1-0.1c-0.8-1.1-1.8-1-3-0.7c-4.3,1.3-8.7,2.6-13.1,3.8
			c-0.3,0.1-0.6,0.1-1.2,0.2c1.4-4.6,2.7-9,4-13.4l0.9-2.9c0.3-1,0.6-2.1,0.9-3.1c0,0.1,0,0.1,0,0.2l0.4-1c-0.1-0.8-0.3-1.6-0.7-2.4
			c-0.6-1.2-1.5-1.7-2.5-1.9c-1.1-0.3-1.4,0.9-1.9,1.7c-0.2,0.4-0.3,0.8-0.4,1.2c-2.3,7.9-4.5,15.8-6.9,23.7
			c-0.2,0.7-0.5,1.4-0.4,2.1l0,0c0,1.4,0.8,2.2,2.4,2.8l0,0c0.8,0.4,1.8,0.7,2.1,0.4c0.8-0.6,1.4-1,2.5-1c1.2,0,2.3-0.9,3.4-1.2
			c3.6-1.1,7.3-2.1,10.9-3.2c1-0.3,2.1-0.6,3.1-1c0.7-0.3,1.1-0.9,0.6-1.8C201.9,23.4,201.8,23.1,201.7,22.7z"/>
		<path fill="#FF4A8F" d="M257.1,4.7c-0.7-0.6-1.1-1.5-1.8-2.1c-0.4-0.3-1.4-0.4-1.7-0.2c-1.7,1.5-3.3,3-4.8,4.7
			c-3.2,3.8-6.2,7.7-9.4,11.5c-0.8,0.9-1.7,1.7-2.6,2.5c-0.2,0.2-0.5,0.2-0.4-0.3c0.3-1.2,0.5-2.4,0.9-3.5c1.3-3.2,2.1-6.5,2.3-9.9
			c0.1-1.6,0.2-3.1-1.1-4.2c-1.4-1.2-1.6-1.1-2.6,0.5c-0.2,0.3-0.4,0.7-0.6,1c-0.8,2.3-1.5,4.6-2.3,7c-1.3,4.1-2.5,8.2-2.7,12.5
			c-0.1,1.2-0.1,2.8,0.6,3.5c1,1.1,2.3,1.6,3.6,1.8c0.9,0.1,1.8-0.3,2.4-1.1c0,0,0-0.1,0.1-0.1c1-1,2.1-2,3.2-3
			c0.1-0.1,0.3-0.2,0.4-0.3c0.8-0.8,1.7-1.5,2.4-2.4c2.3-3,4.6-6.1,6.9-9.1c0.2,0.6,0.2,1.1,0.2,1.5c-0.4,3-1,6-1.3,9
			c-0.2,2-1.4,4.1,0.5,5.8c1,0.1,2,0,3,0.2c0.9,0.2,1.1,0,1.2-0.9c0.4-2.6,1-5.2,1.4-7.8C255.7,15.7,257.4,10.2,257.1,4.7z"/>
		<path fill="#FF4A8F" d="M150.8,12.9c0-0.3,0.1-0.6,0.4-0.7c0.5-0.3,0.9-0.9,0.9-1.5c0-0.5,0-0.9-0.1-1.4c-0.3-1.3-0.9-2.6-1.5-3.8
			c-0.6-1.3-1.8-1.8-3.1-2.1c-1.9-0.4-3.7-0.9-5.6-0.9c-4.9-0.1-9.7,0.1-14.6,0.2c-1.1,0-0.7,0.4-1.7,0.4c-1.1,0.1-1.1,1.2-1.4,1.9
			c-0.1,0.3,0.2,0.8,0.4,1.2c0.1,0.2,0.3,0.4,0.4,0.5c0.7,0.8,1.7,1.6,2.3,1.8c0.2,0.1,0.4,0,1.1-0.3c-0.1,0.5-0.1,0.8-0.2,1.1
			c-0.5,1.8-1,3.7-1.5,5.5c-0.6,2.6-1.1,5.3-1.8,7.9c-0.4,1.3-0.8,2.6,0.3,3.8c-0.2,0.2-0.3,0.3-0.5,0.4c-0.8,0.5-1.6,1-2.3,1.5
			c-1.1,0.8-1.2,1.8,0,2.6c0.2,0.1,0.4,0.2,0.4,0.4c0.7,1.6,1.9,2,3.4,1.1c1.3-0.8,2.8-1.5,4-2.4c1.7-1.3,3.7-2.1,5.4-3.5l0,0
			c0,0,0,0,0,0c0.2-0.2,0.5-0.4,0.7-0.6c0.6-0.5,1.5-1.2,2.4-1.9c0.2-0.1,0.5-0.3,0.8-0.5c0.1,0,0.1-0.1,0.1-0.2
			c2.8-2.2,6-4.7,7-5.5c0.1-0.1,0.2-0.1,0.3-0.2c0,0,0.1-0.1,0.1-0.1l0,0c0.5-0.4,0.9-0.8,1.3-1.3c0.1-0.1,0.2-0.1,0.3-0.2
			C149.3,15.1,150.6,14.5,150.8,12.9z M130.9,23c0-2.4,0.9-5.7,1-6.3c0.2-0.7,0.4-1.4,0.7-2.1c0.2-0.6,0.6-1.7,1.1-2.8
			c0.2-0.5,0.5-1,0.7-1.5c0.6-1.1,1.1-2.1,1.7-2.5c1.6-0.5,9,0.1,10.7,0.9C142.8,15,136.9,18.8,130.9,23z"/>
		<path fill="#FF4A8F" d="M177.5,19.5C177.5,19.5,177.5,19.5,177.5,19.5c0-0.1,0-0.2,0-0.2c0.8-1.4,0.8-2.6-0.7-3.4c0,0,0,0,0,0
			c-0.1-0.1-0.3-0.2-0.5-0.2c-1,0.1-1.8,0.8-2.5,1.5c-0.4,0.4-0.8,0.9-1.2,1.2c-4.2,3.6-9.1,5.6-14.2,7.1c-1.2,0.3-2.5,0.3-3.7,0.2
			c-1.1-0.1-1.3-0.5-0.8-1.5c0.7-1.6,1.5-3.2,2.4-4.7c1.9-3.6,4.7-6.5,7.9-8.8c1.1-0.8,2.3-1.3,3.5-1.9c0.2,0.8,0.4,1.5,0.6,2.2
			c0.2,0.6,0.7,1,1.3,1c0,0,0,0,0.1,0c1.4,0,2.5-1.1,2.5-2.6c-0.1-2-0.4-3.9-1.4-5.7c-0.7-1.3-1.7-2-3.4-1.4
			c-0.8,0.3-1.6,0.5-2.4,0.9c-6.6,3.3-11.3,8.7-14.4,15.6c-0.9,2-1.3,4.4-1.6,6.7c-0.2,1.7,0.2,3.4,1.5,4.6c1.5,1.3,3.2,2.1,5.2,2.1
			v0c0,0,0,0,0,0c0.1,0,0.3,0,0.4,0c0,0,0.1,0,0.1,0c3.7-0.3,10.2-3.7,14.1-6c0.8-0.4,1.6-0.8,2.4-1.2c0.1-0.1,0.2-0.2,0.3-0.3
			c0.9-0.7,1.8-1.4,2.7-2.1c0.3-0.3,0.8-0.7,1.3-1C177.5,21,177.7,20.2,177.5,19.5z"/>
	</g>
	<path fill="#FF4A8F" d="M286.2,4.8c-0.8-0.4-1.6-0.7-2.4-0.8c-3.8-0.5-7.6-0.9-11.4-1.3c-0.5-0.1-1-0.2-1.3-0.5
		c-0.5-0.5-1-0.8-1.5-0.8c0,0,0,0-0.1,0c-2.3,0-2.7,0.2-3,1.2c-0.5,0.1-1.1,0-1.7-0.1c-0.7-0.1-1.3-0.2-2-0.1
		c-2.6,0.2-2.9,0.9-2.5,2.8c0.1,0.8,0.5,1.1,0.9,1.6c0.7,1.2,1.9,1.2,2.8,1.4c1.4,0.3,1.5,0.1,1,1.6c-1.1,3.8-2.3,7.6-3.1,11.5
		c-0.4,1.5-1.1,2.2-2.4,2.7c-0.5,0.2-1,0.4-1.6,0.6c-0.8,0.3-1.1,1.7-0.3,2.6c0.9,1,1.8,2.6,3.7,1.8c1-0.4,1.9-0.8,3.9-1.6
		c0-0.1,0-0.1,0-0.1c0.3-0.1,2.8-1.9,4.5-2.4c1.8-0.6,3.6-1.2,5.4-1.9c3.6-1.5,6.9-3.6,10-6.2c0.2-0.1,0.3-0.2,0.5-0.3
		c0.5-0.1,0.8-0.4,1.2-0.8c0,0,0,0,0.1-0.1c1.4-0.4,1.6-1.5,1.6-2.7c0-0.5,0-1,0.2-1.4C289.8,8.8,288.7,5.9,286.2,4.8z M284.4,10.9
		c-1.6,2.1-3.6,3.6-5.8,4.8c-3.7,2-7.6,3.8-11.4,5.6c-0.2-0.1-0.2-0.2-0.3-0.3c0.5-1.8,0.9-3.5,1.4-5.3c0.5-1.7,1-3.4,1.5-5l0,0
		c1-3.5,1.7-4.2,5.7-3.5c0,0,0,0,0,0c1.6,0.2,3.1,0.5,4.6,0.8c1.2,0.2,2.5,0.3,3.6,0.7C285.1,9.1,285.2,9.8,284.4,10.9z"/>
</g>
</svg>
