<?xml version="1.0" encoding="utf-8"?>
<!-- Generator: Adobe Illustrator 18.0.0, SVG Export Plug-In . SVG Version: 6.00 Build 0)  -->
<!DOCTYPE svg PUBLIC "-//W3C//DTD SVG 1.1//EN" "http://www.w3.org/Graphics/SVG/1.1/DTD/svg11.dtd">
<svg version="1.1" id="Layer_1" xmlns="http://www.w3.org/2000/svg" xmlns:xlink="http://www.w3.org/1999/xlink" x="0px" y="0px"
	 viewBox="0 340 800 120" enable-background="new 0 340 800 120" xml:space="preserve">
<path fill="#FF4A8F" d="M491,446.1h-0.3h-0.3c-0.3,0.3-0.3,0.3-0.6,0.3c-0.8,0-1.9,0.8-3,0.8c-2.5,0-6.3-0.6-14.1-5.2
	c-8.6-5.8-15.7-13-21.5-22.3c-1.9-3-3.6-6.3-5.2-9.4c-0.8-1.4-1.7-2.8-2.5-4.4l-0.3-0.6l0.8-0.6c0.3-0.3,0.6-0.3,0.6-0.6
	c0.3-0.3,0.8-0.6,1.1-0.8c2.2-0.8,4.1-1.7,6.3-2.8c3.9-1.7,8-3.3,11.9-5.2c6.9-3.3,13.5-6.1,17.1-13c1.4-3,1.7-4.4,1.7-5.2
	c0-0.6,0-0.8,0-1.4c0-0.8-0.3-1.7,0-2.8c-0.3-2.8-1.4-5-3.6-6.6c-0.6-0.6-1.4-1.1-1.9-1.7c-1.7-1.4-3.3-2.8-5-4.1
	c-3.6-2.5-6.9-3.6-10.5-3.6c-8,0-16.6,1.9-26.5,6.3c-0.8,0.3-1.4,0.6-2.2,0.8c-1.4,0.6-2.8,1.1-4.1,1.7c-6.6,2.5-10.5,3.3-14.9,3.9
	c-1.7,0.3-3.3,0.6-5,0.8c-1.7,0.3-2.5,0.8-3,1.7c-0.8,1.4,0,3.3,0.8,5c0.3,0.6,0.6,1.1,0.6,1.4c0.8,2.5,1.7,4.4,4.4,4.4
	c0.3,0,0.8,0,1.1,0l1.4-0.3l-0.8,1.4c-3.6,6.3-7.4,12.7-11.3,18.8c-2.8,4.4-5.5,8.8-8,13.2c-3.3,5.8-6.3,11-8.8,16
	c-1.7,3-1.1,6.1,1.7,8.6c1.4,1.4,2.8,1.9,4.1,1.9c1.4,0,2.8-0.8,4.4-2.2c0.8-0.8,2.2-1.1,3-1.4c1.7-0.3,3-0.6,3.9-1.4
	c0.6-0.6,0.6-1.4,0.6-2.8c0-0.8,0.3-1.9,1.1-3l0.3-0.3c2.8-4.7,5.5-9.7,8.3-14.3c0.6-1.1,2.2-2.2,3.3-2.5c3.6-0.8,7.2-1.4,10.5-1.7
	h0.3c1.1,0,2.8,0.6,3.3,1.7c5.2,11,12.7,20.7,22.3,29.2c5.8,5.8,14.1,11.9,18.2,12.4c0.8,0,1.9,0.3,1.9,0.3l0,0
	c2.8,0,3.9-0.6,7.4-1.7c0.8-0.3,2.5-0.8,3.6-1.1c5.5-1.7,8.3-6.1,8.3-7.4C491,446.3,491,446.1,491,446.1z M430.1,395.6
	c-1.4,0.6-3,0.8-4.4,1.4l-1.9,0.6l1.1-1.7c0.6-0.8,0.8-1.7,1.4-2.5c0.8-1.7,1.7-3,2.8-4.4l0.6-0.6c1.1-1.9,2.2-3.9,3-5.5
	c1.9-3.9,3.3-6.1,5.2-6.6c1.4-0.6,6.1-2.2,12.7-3.9v0.3c0,0,0,0,0.3,0c0,0,0.3,0,0.3,0.3c0.3,0,0.3-0.3,0.3-0.3v-0.6
	c0.3,0,0.3-0.3,0.6-0.3c0.3-0.3,0.3-0.6,0.6-0.6c0,0,0.3-0.3,0.6-0.3h0.3l0,0c2.5-0.6,5-0.8,7.2-0.8h0.8l0,0c2.8,0,5,0.8,6.3,1.9
	h0.3c0.3,0,0.3,0.3,0.6,0.6h0.3h0.8l0,0H469c0.3,0,0.6-0.3,0.6,0.3c0,0,0,0,0,0.3c0,0.3,0.3,0.6,0.3,1.1c0.8,2.8-1.1,5.2-5.2,6.9
	c-7.4,3.6-16,7.2-25.9,11.3C435.6,393.9,432.8,394.8,430.1,395.6z M73.9,371.9c4.1-1.1,8.3-2.5,12.4-3.9c8-2.5,16.3-5.2,24.6-5.2
	c1.1,0,2.2,0,3.3,0.3c0.6,0,1.4-0.3,1.9-0.8c1.1-0.8,1.7-2.2,1.7-3.6c0-1.1-1.1-1.7-3-2.5c-1.7-0.6-3.6-1.4-4.7-2.8l-0.3-0.3
	c-1.4-1.7-1.9-1.9-4.1-1.9c0-0.3-0.8,0.6-1.4,0.6H104c-0.3,0-0.6-0.8-1.1-0.6l-1.7-0.3c-0.8,0.3-1.9,0.3-3,0.6l-0.8,0.3
	c-2.8,0.6-5.2,1.1-8.6,2.2l-4.1,1.1c-10.8,3-21.8,6.1-32.3,9.7c-10.2,3.6-20.7,8-30.6,12.1l-4.1,1.9c-1.1,0.6-2.2,2.2-3,3.9
	c-0.3,0.8-0.3,2.2,0,3.3v0.8c0.6,3.3,2.8,5.2,6.1,5.2c0.8,0,1.9-0.3,3-0.6c3-1.1,6.3-1.7,9.7-2.5c1.4-0.3,2.8-0.6,4.1-1.1l0.6-0.3
	c0.3,0,0.3-0.3,0.6-0.3h0.6l0.3,0.8c0,0-0.8,1.9-1.4,2.8c-0.6,1.4-1.4,2.5-1.7,3.6c-4.7,10.5-12.1,27.3-16.6,38.3
	c-1.4,3-1.9,6.1-1.9,9.4c-0.3,5,0.3,6.3,2.2,8.6c1.1,1.1,2.5,1.9,4.4,1.9c1.1,0,2.5-0.3,3.6-0.8c1.1-0.6,2.5-0.8,3.6-1.1
	c1.7-0.3,4.1-1.1,4.1-1.7c0-0.6,0-1.1,0-1.7c-0.3-1.1-0.3-2.5,0-6.3c1.1-5,1.9-8.8,3-12.4c1.9-6.6,4.4-12.7,16.3-33.7l1.9-3
	c3-5,6.3-9.9,9.7-14.9C68.4,375.2,71.2,372.4,73.9,371.9z M136.6,377.1c-1.9-3.3-3.9-6.3-5.8-6.3c-0.8,0-1.9,0.6-3.3,1.9
	c-0.3,0.3-0.3,0.3-0.3,0.3c-0.8,0.8-1.4,1.4-2.2,2.2c-1.9,1.9-3.9,3.9-5.5,6.1c-3.3,3.9-6.6,8-9.9,12.1c-5,6.1-9.9,12.1-14.9,17.9
	l-1.4,1.7c-3.3,4.1-6.9,8.3-12.7,11.3l-2.2,1.1l1.1-2.2c1.1-2.2,2.2-4.1,3-6.1c2.2-4.7,4.4-9.1,7.2-13.2c0.6-0.8,0.8-1.4,1.1-2.2
	c0.8-1.7,1.9-3.6,3.3-5c1.7-1.4,2.2-3.3,1.9-5c-0.6-2.5-1.1-5-1.7-7.4c-0.3-1.1-1.1-2.2-1.9-2.5c-0.8-0.3-1.7-0.6-2.5-0.6
	c-2.5,0-5.5,1.4-6.9,3.3c-3.6,5-7.2,9.9-10.2,14.9c-6.9,11.3-10.5,21-11.3,30.1c-0.3,2.8,0.3,6.1,1.4,9.9c0.8,2.5,2.5,3.9,5,3.9
	c0.3,0,0.6,0,0.8,0c1.7-0.3,3-0.3,4.7-0.6c5.8-0.6,11-0.8,15.7-5.8c2.2-2.5,4.7-5,6.9-7.4c1.7-1.9,3.3-3.6,5.2-5.5
	c1.7-1.7,3-3.3,4.4-5.2l3-3.6l0.3,1.4c0.3,1.4,0.3,2.5-0.3,3.6c-2.8,6.3-5.5,13-8.6,19.3c-0.8,1.9-0.8,4.1,0.3,6.1
	c0.8,1.4,2.2,2.2,3.9,2.5h0.6c2.2,0,5-0.8,7.4-1.7h0.3c1.1-0.3,2.8-1.4,3.6-2.5s1.4-2.5,1.9-3.6l0.6-1.1c3.3-7.7,6.9-15.2,10.2-22.9
	c1.1-2.5,2.2-5,3.3-7.4c3.6-7.4,7.2-15.2,8.8-22.9v-0.3c0.3-2.2-0.3-2.8-1.4-4.1C138.5,379.9,137.7,378.8,136.6,377.1z M254.3,379.9
	l0.6-1.7c1.1-3.6,0-5-1.9-7.2c-0.6-0.6-0.8-1.1-1.4-1.7c-0.8-1.1-1.7-1.9-2.8-3l-0.8-0.6c-1.7-1.4-2.8-2.2-4.4-2.2
	c-0.8,0-1.7,0.3-3,0.6c-7.7,2.5-13.8,8-19,13.5c-5,5.2-9.9,11-14.3,16.6c-1.9,2.5-4.1,5-6.1,7.4c-0.6,0.6-0.8,1.1-1.4,1.7l-2.2,2.5
	l0.3-2.2c0.3-1.9,0.6-3.9,1.4-5.8l0.3-0.8c1.9-4.7,3.6-9.1,2.2-13.8l-0.3-0.6c-0.6-1.7-0.8-3.3-1.9-4.4c-1.4-1.7-2.2-2.8-3-3.6
	c-1.4-1.7-1.7-1.9-2.8-2.5c-0.6-0.3-1.1-0.3-1.9-0.3c-0.3,0-0.8,0-1.1,0c-5.2,0-10.2,1.7-14.6,5l-1.1,0.8l0-1.1
	c-0.6-2.5-0.8-2.8-2.8-3.6c-0.3,0-0.3,0.8-0.6,0.8h-0.3c-0.8,0-1.4-1.1-1.9-1.1c-4.1,0-6.9,1.4-9.1,5.8c-3.6,7.4-7.2,14.9-10.8,22.3
	c-4.7,9.7-9.1,19.3-13.8,29c-1.7,3.3-2.8,6.9-1.7,10.5c0.6,1.9,3.6,3.9,6.1,3.9c0.3,0,0.8,0,1.1-0.3c0.8-0.3,1.9-0.6,2.8-1.1
	c1.4-0.6,3-1.1,4.4-1.7c0.6-0.3,1.4-0.8,1.9-1.9c0.3-0.6,0.6-1.1,0.8-1.7c0.3-0.6,0.3-0.8,0.6-1.4c8.6-15.2,16.3-27.9,26.2-39.4
	c0.8-1.1,1.9-1.9,3-3.3c0.6-0.6,1.4-1.4,1.9-1.9l2.2-2.2l-0.8,3c-0.8,3-1.9,6.1-2.8,9.1c-1.9,6.6-3.9,13.2-5.8,19.6
	c-0.6,1.7-0.8,3-1.4,4.7c-1.7,4.4-3,8.8-2.2,13.2c0.3,1.4,1.4,2.8,1.9,2.8c1.4,0,2.8,0.3,4.1,0.3c2.5,0,4.7-0.3,6.3-0.8
	c2.5-1.1,4.7-3,6.6-5.8c2.8-4.1,6.1-8.6,10.2-14.1l0,0l0.6-0.6c2.8-3.6,5.5-7.2,8.3-10.8c6.6-8.8,13.5-17.9,22.3-25.7l1.9-1.7
	l-0.3,2.2c-0.6,1.9-1.1,4.1-2.2,6.3c-1.7,3-3.3,6.1-5,9.1c-2.8,5.2-5.8,10.5-8.3,16c-3.3,7.2-6.6,14.9-10.5,24.6
	c-1.1,3-1.1,5.8,0.3,7.7c0.8,1.4,2.5,2.2,4.4,2.2h0.3c2.2,0,4.7-1.4,7.2-2.5l1.7-0.8c0.3-0.3,0.8-0.3,1.1-0.6l0.3-0.3
	c2.2-1.1,2.5-2.2,3.3-7.2l0.3-0.8c0.3-1.1,0.3-2.2,0.6-3.3c0.8-5.2,1.7-10.2,5-16.3c4.1-7.7,13-22.6,16.8-28.4
	C253,385.4,253.5,382.9,254.3,379.9z M381.8,423.4c-0.3-0.8-1.4-1.7-3.3-2.5l-0.6-0.3c-1.4-0.6-3-1.4-4.4-1.4c-0.3,0-0.3,0-0.6,0
	c-5,0.8-9.9,1.9-14.9,3c-2.8,0.6-5.2,1.1-8,1.7c-2.5,0.6-5,0.8-7.7,1.4c-1.1,0.3-5.2,0.8-5.2,0.8l0.6-1.4c0.3-0.6,0.6-1.1,0.8-1.7
	c0.6-0.8,0.8-1.7,1.1-2.5c1.9-3.3,4.4-7.2,6.6-11c5.5-9.1,11.9-19.6,16.8-27.3c0.6-0.6,0.8-1.1,1.4-1.4c1.9-2.2,3-3.3,1.7-5.8
	c-1.1-1.9-1.4-3.3-1.7-4.7c0-1.1-0.3-1.9-1.1-3c-1.4-1.7-1.9-1.9-2.8-1.9c-0.6,0-1.4,0.3-2.5,0.6c-3.3,0.8-5.5,2.5-6.9,5
	c-3,5.2-6.1,10.5-9.1,15.7c-2.2,4.1-4.7,8-6.9,12.1c-1.9,3.6-4.1,6.9-6.1,10.2l-3,5.2l-0.8-1.1c-0.8-1.1-1.4-1.9-2.2-3
	c-1.9-2.5-3.6-4.7-5-7.4c-0.3-0.3-0.3-0.8-0.6-1.1c-0.6-1.1-0.8-2.2-1.9-2.5c-1.9-0.8-3.9-1.4-5.8-1.9l-3.6-1.1l0.6-0.8
	c0-0.3,0.3-0.3,0.3-0.6c0.3-0.6,0.6-1.1,1.1-1.7c1.1-0.8,2.5-1.7,3.6-2.5c3.6-2.8,7.4-5.5,11.3-7.7c2.5-1.7,3.3-2.8,2.8-5.2
	c-0.3-1.1-0.3-2.2,0-3.3c0-0.3,0-0.8,0-1.1c0-0.3,0-0.6,0-1.1s0-0.8,0-1.1c-0.3-0.6-0.8-1.1-1.4-1.7c-0.3-0.3-0.6-0.6-0.6-0.6
	c-0.3-0.3-0.6-0.8-1.1-1.1c-1.9-1.9-3.6-3.9-6.6-4.1c-2.8-0.3-5.5-0.6-8.6-0.8c-4.7-0.6-9.4-0.8-14.1-0.8h-1.1
	c-5.5,0-11,1.1-16.6,1.9l-3.3,0.6c-1.7,0.3-3,1.9-3.6,3.3c-0.8,1.9-0.8,3.6,0.3,4.7c2.2,2.2,2.2,4.7,0.3,8
	c-9.1,14.1-17.9,28.4-24.6,39.2c-2.2,3.6-4.1,7.2-2.8,11c0.3,0.6,0,1.7-0.6,2.2c-0.3,0.6-0.6,0.8-0.8,0.8c-2.8,0.8-3.6,3-4.7,5.5
	l-0.6,1.1c0,0.3-0.3,0.3-0.3,0.6c-0.6,1.7-0.6,2.5-0.3,3c0.8,1.1,3.9,1.4,8.6,1.4h0.3l0.3-0.3l0.6-0.3c1.4,0,2.8,0,3.9,0
	c3.9,0,6.9-0.3,9.7-0.8c9.9-2.2,20.1-5.5,29-8.8c11.6-4.1,24-8.8,35-16.6l1.1,0.8c-0.8,1.1-1.4,2.5-2.2,3.6
	c-1.7,2.8-3.3,5.8-5.2,8.8c-1.7,2.5-1.4,4.4-0.8,6.9c0.8,2.5,2.5,3.6,5.8,3.6c1.1,0,1.9,0,3-0.3c4.1-0.3,8.3-0.8,12.4-1.4
	c3.3-0.3,6.6-0.8,9.7-1.1c1.9-0.3,3.6-0.3,5.5-0.6c7.2-0.6,14.9-1.1,22.1-4.1c3-1.1,5.2-3,5.5-5c0.6-0.8,0.8-1.7,1.4-2.5
	c1.1-1.9,1.7-3,1.1-4.1L381.8,423.4z M286.9,385.9c1.9-2.5,3.9-4.7,6.1-7.2c2.5-2.5,5-2.8,6.9-2.8c1.1,0,1.9,0,3,0.3
	c1.1,0,2.2,0.3,3.3,0.3h0.6h1.9l-1.7,1.4c-5.2,4.7-10.8,7.4-16.3,10.5c-2.8,1.4-5.5,2.8-8,4.4l-0.8-1.1
	C283.9,389.8,285.2,387.9,286.9,385.9z M304,413c-12.4,7.4-26.2,13-43.9,17.7l-1.7,0.6l0.8-1.7c0.8-1.7,1.9-3.3,2.8-4.7
	c1.9-3.3,3.9-6.9,6.3-10.2c1.1-1.7,4.7-1.9,5.2-2.2c8.3-0.6,16.3-1.7,24.3-1.9l5.2-0.8l0,0c0.6,0,0.6,0.8,0.8,1.1
	c0,0,0.3,0.6,0.6,0.8l0.6,0.8L304,413z"/>
</svg>
