<?xml version="1.0" encoding="utf-8"?>
<!-- Generator: Adobe Illustrator 18.0.0, SVG Export Plug-In . SVG Version: 6.00 Build 0)  -->
<!DOCTYPE svg PUBLIC "-//W3C//DTD SVG 1.1//EN" "http://www.w3.org/Graphics/SVG/1.1/DTD/svg11.dtd">
<svg version="1.1" id="Layer_1" xmlns="http://www.w3.org/2000/svg" xmlns:xlink="http://www.w3.org/1999/xlink" x="0px" y="0px"
	 viewBox="0 0 290 41" enable-background="new 0 0 290 41" xml:space="preserve">
<g>
	<path fill="#FF4A8F" d="M59.4,5.1c-0.4,0-0.9,0.3-1.1,0.5c-0.5,0.8-0.9,1.5-1.2,2.3c-0.9,2.7-1.7,5.3-2.9,8c-1.3,3.1-3,6.1-4.5,9.1
		c-0.8,1.4-1.5,2.7-2.6,4.4C47,29.1,47,29,47,28.8c0.3-4.4,0.7-8.7,0.9-13.1c0-0.5-0.3-1.3-0.8-1.5c-0.9-0.7-1.9-1.1-3-1.4
		c-0.4-0.1-1.2,0-1.4,0.4c-1.5,2.2-3,4.4-4.5,6.6c-0.8,1.1-1.5,2.2-2.2,3.3c-0.1,0-0.1-0.1-0.3-0.1c0-0.4,0.1-0.7,0.1-1.1
		c0.5-1.9,0.5-1.9,1.1-4.1c0.7-2.5-0.5-4.4-3-4.9c-0.8-0.1-1.5,0-1.7,1.1c-0.4,1.8-0.9,3.5-1.3,5.3c-0.9,3.5-1.4,5.1-2.1,8.7
		c-0.5,2.3-0.7,4.8-1.2,7.1c-0.3,1.1,0,1.5,0.9,1.9c1.4,0.5,4.7-0.5,5.6-2.1c0.9-1.4,1.7-3,2.6-4.4c1.7-2.7,3.5-5.5,5.2-8
		c0.1,0,0.3,0.1,0.5,0.1c-0.1,1.5-0.3,3.1-0.5,4.5c-0.3,2.6-0.4,5.2-1.1,7.8c-0.4,1.8,0.8,3.5,2.2,3.5c1.2,0,2.3-0.3,3.5-0.7
		c0.5-0.1,1.2-0.7,1.4-1.2c2.2-3.8,4.7-7.4,6.6-11.3C57.3,20.2,59.7,15,62,9.7C63.1,7.3,61.8,5.2,59.4,5.1z"/>
	<path fill="#FF4A8F" d="M67.4,14.2c-0.8-0.4-1.8-0.7-2.7-0.8c-1.5-0.1-2.2,0.8-2.2,2.2c0,0.4,0,0.8-0.1,1.2
		c-1.3,3.8-3.3,9-4.4,12.7c-0.5,1.7-1.1,3.4-1.4,5.1c0,1.3,0.3,2.3,1.1,3.3c0.5,0.5,0.9,0.7,1.3,0.1c0.7-0.8,1.5-1.4,1.9-2.3
		c2.7-5.9,5.6-13.4,7.2-19.6C68.4,15.4,68,14.6,67.4,14.2z"/>
	<path fill="#FF4A8F" d="M28.2,11.7c2.7-1.3,5.3-2.5,8.2-3.5c1.2-0.4,2.3-0.8,3.5-0.9c1.5-0.1,1.7-0.3,1.3-1.8
		c-0.5-2.2-2.5-3.8-4.7-2.7c-1.4,0.7-2.7,1.4-4.1,1.9c-6.9,2.9-13.9,5.6-20.7,8.4c-2.6,1.1-5.2,2.2-7.6,3.4
		c-1.5,0.8-1.7,1.9-0.7,3.3c0.8,0.9,1.8,1.1,2.7,0.7c2.5-0.9,4.8-1.9,7.2-3c1.8-0.8,3.8-1.4,5.6-2.2c0.1,0.1,0.3,0.3,0.3,0.3
		c-0.7,1.5-1.3,3.1-1.9,4.7c-1.8,4.1-3.9,8-4.8,12.5c-0.1,0.5-0.5,1.1-0.8,1.7c-0.1,0.5-0.3,1.2-0.1,1.7c0.1,0.7,0.7,1.2,1.1,1.7
		c0.8,1.1,3.8,1.3,4.7,0.5c0.3-0.1,0.4-0.5,0.5-0.8c0.1-1.4,1.3-2.5,1.1-3.9c0-0.1,0-0.3,0.1-0.4c0.5-1.8,1.1-3.7,1.7-5.3
		c0.8-1.9,1.5-3.8,2.5-5.6c1.3-2.7,2.5-5.5,3.8-8.2c0.1-0.4,0.3-0.8,0.4-1.2C27.5,12.6,27.8,12,28.2,11.7z"/>
	<path fill="#FF4A8F" d="M109.6,13c1.9-0.7,3.7-1.2,5.5-1.7c2.6-0.7,3.8-1.9,3.8-4.4s-1.1-3.3-3.3-2.3c-2.2,0.8-4.4,1.8-6.6,2.6
		c-4.1,1.4-8.3,2.9-12.6,4.1c-2.1,0.7-1.4,0.3-3.7,0.8c-1.1,0.3-1.9,1.2-2.3,2.3c-0.3,1.2,0.9,1.5,1.8,2.2c1.5,1.1,2.5,0.9,4.1,0.3
		c1.4-0.5,0,0,1.4-0.5c1.1-0.4,2.1-0.7,3.3-0.9c-0.1,0.4-0.1,0.7-0.1,0.8c-0.7,1.7-1.3,3.4-1.9,5.1c-1.5,4.5-3.1,9.2-4.8,13.9
		c-0.4,1.1-0.1,1.9,0.9,2.5c2.2,1.2,5.7-0.8,6.2-3.4c0.4-2.2,0.9-4.4,1.5-6.6c0.5-1.9,1.4-3.8,2.2-5.6c1.1-2.5,2.2-4.9,3.4-7.4
		C108.7,13.9,109.1,13.3,109.6,13z"/>
	<path fill="#FF4A8F" d="M157.8,17.3c0.5-0.1,1.1-0.5,1.5-0.9c3.3-1.9,6.4-3.9,8.8-6.8c0.3-0.3,0.5-0.8,0.4-1.1
		c-0.5-1.5-1.4-2.9-3-3.5c-3-1.3-6.1-1.5-9.4-1.1c-1.9,0.3-4.1,0.3-6,0.3c-0.8,0-1.5-0.1-2.2,0.7c-0.4,0.4-1.1,0.5-1.5,0.7
		c-1.1,0.3-2.2,0.4-3.3,0.7c-1.4,0.3-2.5,1.7-2.1,2.6c0.4,1.1,2.5,2.2,3.5,1.9c0.3-0.1,0.7,0,1.2,0c-0.9,2.7-1.7,5.2-2.6,7.8
		c-0.1,0.3-0.4,0.4-0.5,0.5c-0.8,0.7-1.5,1.2-2.2,1.8c-1.1,1.3-0.9,1.7,0.5,2.3c0.8,0.4,0.9,0.8,0.7,1.4c-0.5,1.7-1.1,3.3-1.5,4.9
		c-0.5,1.4-0.3,2.2,1.2,2.6c0.9,0.3,1.8,0.4,2.9,0.4c0.5,0,1.3-0.4,1.5-0.9c0.4-0.5,0.3-1.3,0.5-1.9c0.7-2.1,1.5-4.1,1.9-6.2
		c0.4-2.1,1.7-2.7,3.5-3.3c0.1,0.4,0.3,0.8,0.4,1.2c0.9,2.9,2.1,5.6,3.9,7.9c1.7,2.3,3.8,4.3,5.7,6.1c0.8,0.8,1.4,1.3,2.5,1.2
		c1.2-0.1,2.5-0.4,3.5-0.7c0.4-0.1,1.1-0.8,1.1-1.2s-0.5-0.9-0.9-1.3c-0.4-0.3-0.8-0.5-1.1-0.8c-3.1-2.7-7.8-6.5-9.8-13.6
		C156.8,18.6,156.7,17.5,157.8,17.3z M150.9,15.5c-0.1-0.1-0.1-0.1-0.3-0.3c0.4-1.1,0.8-2.2,1.1-3.3c0.1-0.3,0.3-0.5,0.3-0.9
		c0.4-1.8,0.4-1.9,2.2-2.1c2.6-0.3,5.2-0.4,7.9-0.7c0,0.1,0.1,0.3,0.1,0.3C159,11.7,154.9,13.6,150.9,15.5z"/>
	<path fill="#FF4A8F" d="M139.4,8.6c0.1-1.3-1.2-2.3-2.5-1.9c-0.9,0.3-2.1,0.4-6.1,1.5c-5.7,1.8-9.4,3-15.1,4.7
		c-1.4,0.4-1.9,1.4-2.5,2.6c-0.4,1.1,0.1,2.2,1.2,2.3c0.8,0.1,1.7,0,2.6-0.3c1.3-0.4,0.8-0.3,2.1-0.8c0,0.1,0.1,0.1,0.1,0.3
		c-0.8,1.5-1.3,2.2-2.1,3.8c-0.4,0.7-0.8,1.2-1.5,1.4c-2.1,0.7-2.5,1.7-2.2,3.8c0.1,1.1,0.7,1.4,0.7,1.7c-0.7,1.9-1.5,5.6-1.3,7.6
		c0,0.4,0.3,1.1,0.5,1.2c1.8,0.9,3.9,1.5,5.9,1.1c1.8-0.5,3.7-1.4,5.3-2.3c3-1.7,4.1-2.1,7.4-3c0.5-0.1,1.1-0.3,1.3-0.7
		c0.9-1.3,1.3-2.7,0.7-4.3c-0.1-0.4-0.8-0.7-1.2-0.7c-0.8,0.1-1.7,0.5-2.5,0.9c-3.1,1.3-4.1,1.8-7.2,3.1c-1.7,0.7-3,1.5-4.9,1.4
		c0-0.5,1.2-3.9,1.5-4.8c0.3-0.4,0.7-0.9,1.1-1.1c3-1.1,5.3-1.9,8.3-2.9c2.1-0.7,3-0.9,5.1-1.1c1.2-0.1,1.7-0.7,2.1-1.5
		c0.1-0.4,0.1-0.4,0.3-0.8c0.4-1.1-0.3-2.5-1.3-2.7c-2.1-0.7-2.7,0.1-4.5,0.7c-2.2,0.7-4.3,1.4-6.8,2.3c0.3-1.3,1.4-3.8,1.7-4.7
		c0.3-0.8,0.8-1.2,1.4-1.3c3.4-0.9,8.3-2.5,9.8-2.6c1.3-0.1,1.8-0.8,2.1-1.7C139.1,9.4,139.2,9.5,139.4,8.6z"/>
	<path fill="#FF4A8F" d="M97,7.8c1.1-2.6-0.8-3.9-2.7-3.5c-1.5,0.3-3,0.5-4.5,1.1C85.2,6.7,80.5,8,76,9.3c-4.3,1.2-1.8,0-6.1,1.1
		c-0.9,0.3-1.3,1.2-1.3,2.1c0,0.9,1.2,2.5,1.8,2.9c1.7,0.9,2.2,0.8,4.4,0c3.3-1.2-0.3,0.1,3.3-1.1c-0.5,1.4-1.1,2.6-1.4,3.9
		c-1.1,3.4-1.9,6.6-3,10c-0.5,1.5-1.1,3.1-1.4,4.8c-0.4,1.5,0.7,2.5,2.1,1.9c0.9-0.3,1.8-0.5,2.6-1.1c0.8-0.5,1.7-1.2,1.8-1.9
		c0.8-2.5,1.3-5.1,1.8-7.5c0.8-3.8,2.3-7.4,3.8-11c0.1-0.3,0.5-0.4,0.8-0.5c2.7-0.7,5.3-1.3,8-1.8C95.4,10.4,96.2,10,97,7.8z"/>
</g>
</svg>
