<?xml version="1.0" encoding="iso-8859-1"?>
<!-- Generator: Adobe Illustrator 16.0.0, SVG Export Plug-In . SVG Version: 6.00 Build 0)  -->
<!DOCTYPE svg PUBLIC "-//W3C//DTD SVG 1.1//EN" "http://www.w3.org/Graphics/SVG/1.1/DTD/svg11.dtd">
<svg xmlns="http://www.w3.org/2000/svg" xmlns:xlink="http://www.w3.org/1999/xlink" version="1.1" id="Capa_1" x="0px" y="0px" width="512px" height="512px" viewBox="0 0 94 94" style="enable-background:new 0 0 94 94;" xml:space="preserve">
<g>
	<path d="M89,0H5C2.238,0,0,2.239,0,5v84c0,2.761,2.238,5,5,5h84c2.762,0,5-2.239,5-5V5C94,2.239,91.762,0,89,0z M9.2,59.217   c-0.024,0.18-0.153,0.303-0.311,0.303c-0.162,0-0.292-0.125-0.313-0.305l-0.57-4.257l0.57-4.332   c0.021-0.181,0.15-0.306,0.313-0.306c0.157,0,0.286,0.125,0.311,0.305l0.676,4.333L9.2,59.217z M12.097,61.809   c-0.025,0.186-0.159,0.315-0.323,0.315c-0.166,0-0.304-0.132-0.325-0.315l-0.767-6.849l0.767-7.003   c0.021-0.184,0.159-0.314,0.325-0.314c0.164,0,0.298,0.129,0.323,0.314l0.873,7.003L12.097,61.809z M15.227,62.967   c-0.024,0.223-0.188,0.383-0.39,0.383c-0.206,0-0.371-0.16-0.392-0.385l-0.728-8.005l0.728-8.31   c0.021-0.222,0.186-0.383,0.392-0.383c0.201,0,0.365,0.161,0.39,0.383l0.826,8.31L15.227,62.967z M18.383,63.221   c-0.021,0.256-0.219,0.449-0.456,0.449c-0.243,0-0.44-0.193-0.459-0.449l-0.688-8.26l0.688-8.539   c0.019-0.256,0.216-0.449,0.459-0.449c0.237,0,0.435,0.193,0.456,0.448l0.781,8.54L18.383,63.221z M21.563,63.29   c-0.019,0.293-0.245,0.517-0.522,0.517c-0.281,0-0.507-0.224-0.524-0.517l-0.65-8.328l0.65-7.92   c0.018-0.295,0.243-0.517,0.524-0.517c0.277,0,0.504,0.222,0.522,0.514l0.737,7.923L21.563,63.29z M24.768,63.293v-0.002   c-0.018,0.327-0.277,0.584-0.589,0.584c-0.316,0-0.574-0.257-0.59-0.582l-0.61-8.328c0,0,0.61-12.885,0.61-12.886   c0.016-0.328,0.273-0.584,0.59-0.584c0.312,0,0.571,0.257,0.589,0.583l0.689,12.887L24.768,63.293z M27.949,63.287v-0.004   c-0.016,0.365-0.305,0.65-0.656,0.65c-0.354,0-0.641-0.285-0.656-0.647l-0.57-8.276c0,0,0.568-15.832,0.568-15.833   c0.018-0.365,0.305-0.651,0.658-0.651c0.352,0,0.641,0.286,0.656,0.651l0.645,15.833L27.949,63.287z M31.254,63.161v-0.005   c-0.016,0.402-0.334,0.717-0.723,0.717c-0.393,0-0.709-0.314-0.725-0.714l-0.529-8.19c0,0,0.529-17.154,0.529-17.155   c0.016-0.402,0.332-0.718,0.725-0.718c0.389,0,0.707,0.315,0.723,0.718l0.6,17.155L31.254,63.161z M34.533,63.105   c-0.012,0.438-0.359,0.783-0.787,0.783c-0.432,0-0.779-0.345-0.791-0.781l-0.492-8.139l0.492-17.732   c0.012-0.44,0.359-0.786,0.791-0.786c0.428,0,0.775,0.345,0.787,0.786l0.555,17.733L34.533,63.105z M37.84,63.035v-0.006   c-0.012,0.477-0.389,0.853-0.855,0.853c-0.469,0-0.846-0.376-0.855-0.849l-0.453-8.062l0.453-17.279   c0.01-0.478,0.387-0.852,0.855-0.852c0.467,0,0.844,0.373,0.855,0.851l0.51,17.282L37.84,63.035z M41.172,62.984v-0.008   c-0.01,0.517-0.416,0.92-0.922,0.92c-0.508,0-0.914-0.403-0.926-0.914l-0.41-8.012l0.41-16.647c0.012-0.516,0.418-0.92,0.926-0.92   c0.506,0,0.912,0.404,0.922,0.918l0.463,16.652L41.172,62.984z M44.57,62.141l-0.041,0.787c-0.006,0.271-0.119,0.518-0.299,0.696   c-0.178,0.178-0.422,0.29-0.691,0.29c-0.303,0-0.574-0.141-0.758-0.357c-0.135-0.162-0.219-0.367-0.23-0.59   c0-0.011-0.002-0.021-0.002-0.033c0,0-0.373-7.953-0.373-7.965l0.371-19.62l0.002-0.187c0.006-0.346,0.188-0.65,0.457-0.826   c0.154-0.101,0.336-0.161,0.533-0.161c0.201,0,0.391,0.063,0.547,0.168c0.262,0.178,0.438,0.478,0.443,0.817l0.416,19.812   L44.57,62.141z M47.871,62.818L47.871,62.818v-0.008c-0.01,0.58-0.482,1.053-1.057,1.053c-0.575,0-1.049-0.473-1.057-1.047   l-0.213-3.866l-0.221-3.974l0.432-21.501l0.002-0.108c0.004-0.326,0.156-0.619,0.391-0.812c0.184-0.151,0.414-0.242,0.666-0.242   c0.195,0,0.381,0.056,0.538,0.152c0.305,0.185,0.514,0.519,0.52,0.9l0.469,21.611L47.871,62.818z M76.402,63.885   c0,0-26.566,0.004-26.592,0c-0.572-0.057-1.027-0.514-1.035-1.101V32.34c0.008-0.56,0.199-0.847,0.922-1.128   c1.863-0.72,3.975-1.146,6.137-1.146c8.844,0,16.092,6.781,16.857,15.425c1.141-0.478,2.395-0.744,3.711-0.744   c5.297,0,9.59,4.294,9.59,9.592C85.992,59.639,81.699,63.885,76.402,63.885z" fill="#FFFFFF"/>
</g>
<g>
</g>
<g>
</g>
<g>
</g>
<g>
</g>
<g>
</g>
<g>
</g>
<g>
</g>
<g>
</g>
<g>
</g>
<g>
</g>
<g>
</g>
<g>
</g>
<g>
</g>
<g>
</g>
<g>
</g>
</svg>
