<?xml version="1.0" encoding="utf-8"?>
<!-- Generator: Adobe Illustrator 18.1.0, SVG Export Plug-In . SVG Version: 6.00 Build 0)  -->
<svg version="1.1" id="Layer_1" xmlns="http://www.w3.org/2000/svg" xmlns:xlink="http://www.w3.org/1999/xlink" x="0px" y="0px"
	 viewBox="0 0 290 41" enable-background="new 0 0 290 41" xml:space="preserve">
<path fill="#FD9C5D" d="M178,37.2c0,0-0.1,0-0.1,0c0,0-0.1,0-0.1,0c-0.1,0.1-0.1,0.1-0.2,0.1c-0.3,0-0.7,0.3-1.1,0.3
	c-0.9,0-2.3-0.2-5.1-1.9c-3.1-2.1-5.7-4.7-7.8-8.1c-0.7-1.1-1.3-2.3-1.9-3.4c-0.3-0.5-0.6-1-0.9-1.6l-0.1-0.2l0.3-0.2
	c0.1-0.1,0.2-0.1,0.2-0.2c0.1-0.1,0.3-0.2,0.4-0.3c0.8-0.3,1.5-0.6,2.3-1c1.4-0.6,2.9-1.2,4.3-1.9c2.5-1.2,4.9-2.2,6.2-4.7
	c0.5-1.1,0.6-1.6,0.6-1.9c0-0.2,0-0.3,0-0.5c0-0.3-0.1-0.6,0-1c-0.1-1-0.5-1.8-1.3-2.4c-0.2-0.2-0.5-0.4-0.7-0.6
	c-0.6-0.5-1.2-1-1.8-1.5c-1.3-0.9-2.5-1.3-3.8-1.3c-2.9,0-6,0.7-9.6,2.3c-0.3,0.1-0.5,0.2-0.8,0.3c-0.5,0.2-1,0.4-1.5,0.6
	c-2.4,0.9-3.8,1.2-5.4,1.4c-0.6,0.1-1.2,0.2-1.8,0.3c-0.6,0.1-0.9,0.3-1.1,0.6c-0.3,0.5,0,1.2,0.3,1.8c0.1,0.2,0.2,0.4,0.2,0.5
	c0.3,0.9,0.6,1.6,1.6,1.6c0.1,0,0.3,0,0.4,0l0.5-0.1l-0.3,0.5c-1.3,2.3-2.7,4.6-4.1,6.8c-1,1.6-2,3.2-2.9,4.8
	c-1.2,2.1-2.3,4-3.2,5.8c-0.6,1.1-0.4,2.2,0.6,3.1c0.5,0.5,1,0.7,1.5,0.7c0.5,0,1-0.3,1.6-0.8c0.3-0.3,0.8-0.4,1.1-0.5
	c0.6-0.1,1.1-0.2,1.4-0.5c0.2-0.2,0.2-0.5,0.2-1c0-0.3,0.1-0.7,0.4-1.1l0.1-0.1c1-1.7,2-3.5,3-5.2c0.2-0.4,0.8-0.8,1.2-0.9
	c1.3-0.3,2.6-0.5,3.8-0.6l0.1,0c0.4,0,1,0.2,1.2,0.6c1.9,4,4.6,7.5,8.1,10.6c2.1,2.1,5.1,4.3,6.6,4.5c0.3,0,0.7,0.1,0.7,0.1l0,0
	c1,0,1.4-0.2,2.7-0.6c0.3-0.1,0.9-0.3,1.3-0.4c2-0.6,3-2.2,3-2.7C178,37.3,178,37.2,178,37.2z M155.9,18.9c-0.5,0.2-1.1,0.3-1.6,0.5
	l-0.7,0.2l0.4-0.6c0.2-0.3,0.3-0.6,0.5-0.9c0.3-0.6,0.6-1.1,1-1.6l0.2-0.2c0.4-0.7,0.8-1.4,1.1-2c0.7-1.4,1.2-2.2,1.9-2.4
	c0.5-0.2,2.2-0.8,4.6-1.4l0,0.1c0,0,0,0,0.1,0c0,0,0.1,0,0.1,0.1c0.1,0,0.1-0.1,0.1-0.1c0,0,0-0.2,0-0.2c0.1,0,0.1-0.1,0.2-0.1
	c0.1-0.1,0.1-0.2,0.2-0.2c0,0,0.1-0.1,0.2-0.1l0.1,0l0,0c0.9-0.2,1.8-0.3,2.6-0.3l0.3,0v0c1,0,1.8,0.3,2.3,0.7c0,0,0.1,0,0.1,0
	c0.1,0,0.1,0.1,0.2,0.2c0,0,0.1,0,0.1,0c0,0,0.3,0,0.3,0v0c0,0-0.2,0-0.2,0c0.1,0,0.2-0.1,0.2,0.1c0,0,0,0,0,0.1
	c0,0.1,0.1,0.2,0.1,0.4c0.3,1-0.4,1.9-1.9,2.5c-2.7,1.3-5.8,2.6-9.4,4.1C157.9,18.3,156.9,18.6,155.9,18.9z M26.8,10.3
	c1.5-0.4,3-0.9,4.5-1.4C34.2,8,37.2,7,40.2,7c0.4,0,0.8,0,1.2,0.1c0.2,0,0.5-0.1,0.7-0.3c0.4-0.3,0.6-0.8,0.6-1.3
	c0-0.4-0.4-0.6-1.1-0.9c-0.6-0.2-1.3-0.5-1.7-1l-0.1-0.1c-0.5-0.6-0.7-0.7-1.5-0.7C38.3,2.7,38,3,37.8,3h-0.1
	c-0.1,0-0.2-0.3-0.4-0.2l-0.6-0.1c-0.3,0.1-0.7,0.1-1.1,0.2L35.3,3c-1,0.2-1.9,0.4-3.1,0.8l-1.5,0.4C26.8,5.3,22.8,6.4,19,7.7
	c-3.7,1.3-7.5,2.9-11.1,4.4l-1.5,0.7C6,13,5.6,13.6,5.3,14.2c-0.1,0.3-0.1,0.8,0,1.2l0,0.3c0.2,1.2,1,1.9,2.2,1.9
	c0.3,0,0.7-0.1,1.1-0.2c1.1-0.4,2.3-0.6,3.5-0.9c0.5-0.1,1-0.2,1.5-0.4l0.2-0.1c0.1,0,0.1-0.1,0.2-0.1l0.2,0l0.1,0.3
	c0,0-0.3,0.7-0.5,1c-0.2,0.5-0.5,0.9-0.6,1.3c-1.7,3.8-4.4,9.9-6,13.9c-0.5,1.1-0.7,2.2-0.7,3.4c-0.1,1.8,0.1,2.3,0.8,3.1
	c0.4,0.4,0.9,0.7,1.6,0.7c0.4,0,0.9-0.1,1.3-0.3c0.4-0.2,0.9-0.3,1.3-0.4c0.6-0.1,1.5-0.4,1.5-0.6c0-0.2,0-0.4,0-0.6
	c-0.1-0.4-0.1-0.9,0-2.3c0.4-1.8,0.7-3.2,1.1-4.5c0.7-2.4,1.6-4.6,5.9-12.2l0.7-1.1c1.1-1.8,2.3-3.6,3.5-5.4
	C24.8,11.5,25.8,10.5,26.8,10.3z M49.5,12.2c-0.7-1.2-1.4-2.3-2.1-2.3c-0.3,0-0.7,0.2-1.2,0.7c-0.1,0.1-0.1,0.1-0.1,0.1
	c-0.3,0.3-0.5,0.5-0.8,0.8c-0.7,0.7-1.4,1.4-2,2.2c-1.2,1.4-2.4,2.9-3.6,4.4c-1.8,2.2-3.6,4.4-5.4,6.5l-0.5,0.6
	c-1.2,1.5-2.5,3-4.6,4.1l-0.8,0.4l0.4-0.8c0.4-0.8,0.8-1.5,1.1-2.2c0.8-1.7,1.6-3.3,2.6-4.8c0.2-0.3,0.3-0.5,0.4-0.8
	c0.3-0.6,0.7-1.3,1.2-1.8c0.6-0.5,0.8-1.2,0.7-1.8c-0.2-0.9-0.4-1.8-0.6-2.7c-0.1-0.4-0.4-0.8-0.7-0.9c-0.3-0.1-0.6-0.2-0.9-0.2
	c-0.9,0-2,0.5-2.5,1.2c-1.3,1.8-2.6,3.6-3.7,5.4c-2.5,4.1-3.8,7.6-4.1,10.9c-0.1,1,0.1,2.2,0.5,3.6c0.3,0.9,0.9,1.4,1.8,1.4
	c0.1,0,0.2,0,0.3,0c0.6-0.1,1.1-0.1,1.7-0.2c2.1-0.2,4-0.3,5.7-2.1c0.8-0.9,1.7-1.8,2.5-2.7c0.6-0.7,1.2-1.3,1.9-2
	c0.6-0.6,1.1-1.2,1.6-1.9l1.1-1.3l0.1,0.5c0.1,0.5,0.1,0.9-0.1,1.3c-1,2.3-2,4.7-3.1,7c-0.3,0.7-0.3,1.5,0.1,2.2
	c0.3,0.5,0.8,0.8,1.4,0.9l0.2,0c0.8,0,1.8-0.3,2.7-0.6l0.1,0c0.4-0.1,1-0.5,1.3-0.9c0.3-0.4,0.5-0.9,0.7-1.3l0.2-0.4
	c1.2-2.8,2.5-5.5,3.7-8.3c0.4-0.9,0.8-1.8,1.2-2.7c1.3-2.7,2.6-5.5,3.2-8.3l0-0.1c0.1-0.8-0.1-1-0.5-1.5
	C50.2,13.2,49.9,12.8,49.5,12.2z M92.2,13.2l0.2-0.6c0.4-1.3,0-1.8-0.7-2.6c-0.2-0.2-0.3-0.4-0.5-0.6c-0.3-0.4-0.6-0.7-1-1.1
	l-0.3-0.2c-0.6-0.5-1-0.8-1.6-0.8c-0.3,0-0.6,0.1-1.1,0.2c-2.8,0.9-5,2.9-6.9,4.9c-1.8,1.9-3.6,4-5.2,6c-0.7,0.9-1.5,1.8-2.2,2.7
	c-0.2,0.2-0.3,0.4-0.5,0.6l-0.8,0.9l0.1-0.8c0.1-0.7,0.2-1.4,0.5-2.1l0.1-0.3c0.7-1.7,1.3-3.3,0.8-5L73,14.2
	c-0.2-0.6-0.3-1.2-0.7-1.6c-0.5-0.6-0.8-1-1.1-1.3c-0.5-0.6-0.6-0.7-1-0.9c-0.2-0.1-0.4-0.1-0.7-0.1c-0.1,0-0.3,0-0.4,0
	c-1.9,0-3.7,0.6-5.3,1.8l-0.4,0.3L63.4,12c-0.2-0.9-0.3-1-1-1.3c-0.1,0-0.1,0.3-0.2,0.3h-0.1c-0.3,0-0.5-0.4-0.7-0.4
	c-1.5,0-2.5,0.5-3.3,2.1c-1.3,2.7-2.6,5.4-3.9,8.1c-1.7,3.5-3.3,7-5,10.5c-0.6,1.2-1,2.5-0.6,3.8c0.2,0.7,1.3,1.4,2.2,1.4
	c0.1,0,0.3,0,0.4-0.1c0.3-0.1,0.7-0.2,1-0.4c0.5-0.2,1.1-0.4,1.6-0.6c0.2-0.1,0.5-0.3,0.7-0.7c0.1-0.2,0.2-0.4,0.3-0.6
	c0.1-0.2,0.1-0.3,0.2-0.5c3.1-5.5,5.9-10.1,9.5-14.3c0.3-0.4,0.7-0.7,1.1-1.2c0.2-0.2,0.5-0.5,0.7-0.7l0.8-0.8l-0.3,1.1
	c-0.3,1.1-0.7,2.2-1,3.3c-0.7,2.4-1.4,4.8-2.1,7.1c-0.2,0.6-0.3,1.1-0.5,1.7c-0.6,1.6-1.1,3.2-0.8,4.8c0.1,0.5,0.5,1,0.7,1
	c0.5,0,1,0.1,1.5,0.1c0.9,0,1.7-0.1,2.3-0.3c0.9-0.4,1.7-1.1,2.4-2.1c1-1.5,2.2-3.1,3.7-5.1l0,0l0.2-0.2c1-1.3,2-2.6,3-3.9
	c2.4-3.2,4.9-6.5,8.1-9.3l0.7-0.6L84.9,15c-0.2,0.7-0.4,1.5-0.8,2.3c-0.6,1.1-1.2,2.2-1.8,3.3c-1,1.9-2.1,3.8-3,5.8
	c-1.2,2.6-2.4,5.4-3.8,8.9c-0.4,1.1-0.4,2.1,0.1,2.8c0.3,0.5,0.9,0.8,1.6,0.8l0.1,0c0.8,0,1.7-0.5,2.6-0.9l0.6-0.3
	c0.1-0.1,0.3-0.1,0.4-0.2l0.1-0.1c0.8-0.4,0.9-0.8,1.2-2.6l0.1-0.3c0.1-0.4,0.1-0.8,0.2-1.2c0.3-1.9,0.6-3.7,1.8-5.9
	c1.5-2.8,4.7-8.2,6.1-10.3C91.7,15.2,91.9,14.3,92.2,13.2z M138.4,29c-0.1-0.3-0.5-0.6-1.2-0.9L137,28c-0.5-0.2-1.1-0.5-1.6-0.5
	c-0.1,0-0.1,0-0.2,0c-1.8,0.3-3.6,0.7-5.4,1.1c-1,0.2-1.9,0.4-2.9,0.6c-0.9,0.2-1.8,0.3-2.8,0.5c-0.4,0.1-1.9,0.3-1.9,0.3l0.2-0.5
	c0.1-0.2,0.2-0.4,0.3-0.6c0.2-0.3,0.3-0.6,0.4-0.9c0.7-1.2,1.6-2.6,2.4-4c2-3.3,4.3-7.1,6.1-9.9c0.2-0.2,0.3-0.4,0.5-0.5
	c0.7-0.8,1.1-1.2,0.6-2.1c-0.4-0.7-0.5-1.2-0.6-1.7c0-0.4-0.1-0.7-0.4-1.1c-0.5-0.6-0.7-0.7-1-0.7c-0.2,0-0.5,0.1-0.9,0.2
	c-1.2,0.3-2,0.9-2.5,1.8c-1.1,1.9-2.2,3.8-3.3,5.7c-0.8,1.5-1.7,2.9-2.5,4.4c-0.7,1.3-1.5,2.5-2.2,3.7l-1.1,1.9l-0.3-0.4
	c-0.3-0.4-0.5-0.7-0.8-1.1c-0.7-0.9-1.3-1.7-1.8-2.7c-0.1-0.1-0.1-0.3-0.2-0.4c-0.2-0.4-0.3-0.8-0.7-0.9c-0.7-0.3-1.4-0.5-2.1-0.7
	l-1.3-0.4l0.2-0.3c0-0.1,0.1-0.1,0.1-0.2c0.1-0.2,0.2-0.4,0.4-0.6c0.4-0.3,0.9-0.6,1.3-0.9c1.3-1,2.7-2,4.1-2.8c0.9-0.6,1.2-1,1-1.9
	c-0.1-0.4-0.1-0.8,0-1.2c0-0.1,0-0.3,0-0.4c0-0.1,0-0.2,0-0.4c0-0.2,0-0.3,0-0.4c-0.1-0.2-0.3-0.4-0.5-0.6c-0.1-0.1-0.2-0.2-0.2-0.2
	c-0.1-0.1-0.2-0.3-0.4-0.4c-0.7-0.7-1.3-1.4-2.4-1.5c-1-0.1-2-0.2-3.1-0.3c-1.7-0.2-3.4-0.3-5.1-0.3l-0.4,0c-2,0-4,0.4-6,0.7
	l-1.2,0.2c-0.6,0.1-1.1,0.7-1.3,1.2c-0.3,0.7-0.3,1.3,0.1,1.7c0.8,0.8,0.8,1.7,0.1,2.9c-3.3,5.1-6.5,10.3-8.9,14.2
	c-0.8,1.3-1.5,2.6-1,4c0.1,0.2,0,0.6-0.2,0.8c-0.1,0.2-0.2,0.3-0.3,0.3c-1,0.3-1.3,1.1-1.7,2l-0.2,0.4c0,0.1-0.1,0.1-0.1,0.2
	c-0.2,0.6-0.2,0.9-0.1,1.1c0.3,0.4,1.4,0.5,3.1,0.5h0.1l0.1-0.1l0.2-0.1c0.5,0,1,0,1.4,0c1.4,0,2.5-0.1,3.5-0.3
	c3.6-0.8,7.3-2,10.5-3.2c4.2-1.5,8.7-3.2,12.7-6l0.4,0.3c-0.3,0.4-0.5,0.9-0.8,1.3c-0.6,1-1.2,2.1-1.9,3.2c-0.6,0.9-0.5,1.6-0.3,2.5
	c0.3,0.9,0.9,1.3,2.1,1.3c0.4,0,0.7,0,1.1-0.1c1.5-0.1,3-0.3,4.5-0.5c1.2-0.1,2.4-0.3,3.5-0.4c0.7-0.1,1.3-0.1,2-0.2
	c2.6-0.2,5.4-0.4,8-1.5c1.1-0.4,1.9-1.1,2-1.8c0.2-0.3,0.3-0.6,0.5-0.9c0.4-0.7,0.6-1.1,0.4-1.5L138.4,29z M104,15.4
	c0.7-0.9,1.4-1.7,2.2-2.6c0.9-0.9,1.8-1,2.5-1c0.4,0,0.7,0,1.1,0.1c0.4,0,0.8,0.1,1.2,0.1l0.2,0l0.7,0l-0.6,0.5
	c-1.9,1.7-3.9,2.7-5.9,3.8c-1,0.5-2,1-2.9,1.6l-0.3-0.4C102.9,16.8,103.4,16.1,104,15.4z M110.2,25.2c-4.5,2.7-9.5,4.7-15.9,6.4
	l-0.6,0.2l0.3-0.6c0.3-0.6,0.7-1.2,1-1.7c0.7-1.2,1.4-2.5,2.3-3.7c0.4-0.6,1.7-0.7,1.9-0.8c3-0.2,5.9-0.6,8.8-0.7l1.9-0.3h0
	c0.2,0,0.2,0.3,0.3,0.4c0,0,0.1,0.2,0.2,0.3l0.2,0.3L110.2,25.2z"/>
</svg>
